<svg version="1.1" id="Layer_1" xmlns="http://www.w3.org/2000/svg" xmlns:xlink="http://www.w3.org/1999/xlink" x="0px" y="0px"
	 viewBox="0 0 600 600" style="enable-background:new 0 0 600 600;" xml:space="preserve">
<style type="text/css">
	.st0{fill:#0D233F;}
	.st1{fill:#BB2031;}
</style>
<path id="Blue" class="st0" d="M505.3,18.9C505.3,18.9,505.3,18.9,505.3,18.9c-7.6,0-14.8,4-23.5,9.2c-1.2,0.7-2.5,1.5-3.1,1.8
	c-64.3,33.5-119.9,83.4-169.9,152.6c-42.5,58.9-73.5,121.1-100.9,175.9c-0.7,1.3-1.3,2.7-2,4c-30.2,11.2-54.7,27.1-73,47.4
	c-14.5,16.1-22,31.7-23.9,40.2c-1.3,5.8-3.6,15.4,2.8,23.4c3.6,4.6,9.2,7.2,15.2,7.2c2.3,0,4.5-0.4,6.9-1c-8,7-15.6,10.5-23.1,10.8
	c-1.2,0.1-2.4,0.1-3.6,0.1c-16.4,0-30.4-5.6-41.6-16.7c-8.8-8.6-13.2-18-14.1-21.2c-0.5-25.2-17.2-26.5-20.6-26.5c0,0,0,0,0,0
	c-15.8,0-23.1,17.3-28,34.2c-7.3,24.8-1,54.6,16.5,77.9c20.6,27.6,53.9,42.8,93.6,42.8c0.7,0,1.5,0,2.2,0
	c32.5-0.4,62-17.4,90.2-51.8c23.6-28.8,43.8-66.9,60.8-101.6c22.7-5.8,41.7-8.3,63.3-11.1c11.7-1.5,24.6-3.2,39.2-5.6
	c11,46,28.1,85.2,49.9,114.2c26.2,34.7,57.7,53.1,91.3,53.1c12.9,0,25.9-2.8,38.5-8.3c25.7-11.1,43.7-35.8,49.6-67.8
	c5.8-31.6-1.7-63.8-18.5-80.1l-0.3-0.2c-6.6-6.4-13.4-12.9-23.1-12.9c-5.6,0-10.7,2.3-14.4,6.4c-6.5,7.2-6.5,17.3-5.5,27.2
	c3.2,31.8-11.7,51.2-28.1,53.8c0,0-0.1,0-0.3,0c-5.2,0-18.3-7.3-32.9-27.4c-14.3-19.9-25.8-46.3-32.9-75.7
	c66.6-24.1,90.4-62.4,98.4-91.2c5.1-18.4,4.3-34.4,2.7-44.6c-2-12.7-6.2-23.3-11.6-29.3c-5.6-6.2-12.5-12.4-22-12.4
	c-8.3,0-15.4,4.9-19.2,13.1c-1.8,3.9-2.9,8.7-3.7,15.2c-2.1,18.4-10.2,44-52.9,65.3c2.3-77.8,30-162.3,81-246.1
	c7.1-11.6,13.4-23.9,7.2-34.9C518.8,22.5,512.5,18.9,505.3,18.9L505.3,18.9L505.3,18.9z M306.2,342.7c15.3-32.2,31.7-64.8,49.7-91.5
	c-1.5,28.2-1.2,56,1,83.1C341.6,337.4,324.8,340.2,306.2,342.7L306.2,342.7z"/>
<path id="Red" class="st1" d="M567.8,434.3c-8.2-8-16.9-16.6-14.6,6.5c4,39.7-16,68-42.2,72.2c-25.2,4.1-72.3-44.4-88.5-131.1
	c129.8-39.2,107.2-130.6,96.6-142.4c-9.1-10-13.6-9.8-15.4,6.5c-4.8,41.4-33.5,69.6-86.5,88.9c-3.1-75.3,16.7-171,83.3-280.4
	c19.9-32.7-6.6-13.5-13.8-9.7c-144.1,75-214.4,222.8-268.5,331.2c-71.9,24.4-90.8,70-92.6,77.7c-2.4,10.5-1.5,12.6,11.4,6.5
	c18.1-8.6,34-15.7,48.5-21.8c-23.4,40.6-46,67.5-73.6,68.9c-55.1,2.7-77.1-45.3-77.1-53.6c0-15.5-7.3-16.2-15.4,11.3
	c-11,37.4,17.6,100.1,95.8,99c59.2-0.8,100.6-70.5,139.4-150.8c45.1-12.5,74.3-12,127.5-21.8c24.4,121.5,90.3,193,160,162.9
	C590.1,533.6,592.1,457.8,567.8,434.3z M375.2,347.6c-27.7,6.6-59.1,11.5-95.5,15.4c-0.6,0-1.2,0.1-1.8,0.2
	c30.5-65.4,61.3-129.9,100-164.1C370.7,252.2,370.3,302.4,375.2,347.6L375.2,347.6z"/>
</svg>
