<svg version="1.1" id="Layer_1" xmlns="http://www.w3.org/2000/svg" xmlns:xlink="http://www.w3.org/1999/xlink" x="0px" y="0px"
	 viewBox="0 0 600 600" style="enable-background:new 0 0 600 600;" xml:space="preserve">
<style type="text/css">
	.st0{fill:#FFFFFF;}
	.st1{fill:#DF4601;}
</style>
<path class="st0" d="M183,15.6c-3.8,0-8.1,0.5-11.9,0.9c-2.4,0.5-28.9,4.3-50.3,26.5c-3.8,3.8-11.4,13.3-15.6,24.2
	c-0.9,0.9-2.4,1.9-3.8,2.8c-3.8,2.4-8.1,5.7-15.6,12.8c-32.7,27.5-49.3,61.6-49.3,101.9c0,21.8,4.7,45,14.2,68.7
	c-32.2,26.7-44,54.7-48.3,74.6c-4.7,22.3-0.9,38.4-0.9,38.9l1.4,6.6l6.6-0.9l11.9-1.9c1.4,57.8,21.8,108.1,59.7,146
	c43.1,43.1,106.7,67.8,174,67.8c46.9,0,92.4-12.3,128-35.1c39.3-25.1,65.4-61.6,75.4-105.2c16.6-72.1,28.4-101,89.6-116.6
	c17.1-4.7,24.2-16.6,23.2-26.5c-1.4-14.2-15.2-28-37-37.9c-15.6-7.1-43.6-15.6-84.9-15.6c-7.6,0-15.2,0.5-23.2,0.9
	c-0.9-4.3-1.9-7.1-2.4-10c36-8.5,95.3-27,137.5-60.7c37.5-29.9,46.9-57.8,31.8-93.9c-7.1-17.1-23.7-29.4-45.5-33.2h-0.9
	c-3.8-0.5-7.6-0.5-11.9-0.5c-28.9,0-68.3,8.5-110,17.5c-8.5,1.9-17.5,3.8-26.1,5.7c-16.1,3.3-46.9,7.6-57.4,9
	c-24.7-29.9-56.9-46.9-94.8-52.1c-6.6-0.9-11.9-0.9-16.1-0.9c-3.3,0-5.7,0-7.6-0.5c0,0-0.5,0-0.5-0.5
	C217.1,24.6,204.3,15.6,183,15.6"/>
<path class="st1" d="M586.9,86.7c-5.2-13.3-18.5-25.1-39.8-28.9c-3.3-0.5-7.1-0.5-10.9-0.5c-33.7,0-84.4,12.3-134.6,22.8
	c-19.9,3.8-62.1,9.5-62.1,9.5c-32.7-38.4-70.2-48.4-93.9-51.7c-13.7-1.9-19.9-0.5-25.6-2.4c-4.3-2.8-16.1-12.8-37-12.8l0,0
	c-3.3,0-7.1,0.5-11.9,2.8c0,0-25.6,3.3-46,24.2c-4.3,3.8-11.4,13.3-14.7,23.2c-5.2,4.3-9.5,5.7-20.9,16.6
	c-72.1,61.2-42.7,140.8-30.8,167.4C-6.1,307.6,8.1,366.4,8.1,366.4l19.9-3.3c-0.5,145.1,115.2,215.2,226.6,215.2
	c89.6,0,175.9-45.5,196.3-134.6c16.6-72.5,30.3-105.2,95.3-122.3c13.3-3.8,18.5-12.3,18-19c-2.4-22.8-46-47.4-114.3-47.4
	c-9,0-18.5,0.5-28.4,1.4c-4.7-16.6-5.2-23.2-5.2-23.2c42.2-10,101-28.9,141.3-61.2C589.8,145.9,601.6,121.7,586.9,86.7z"/>
<path d="M480.2,301.4c-70.2,38.9-65.4,89.1-144.1,110c-89.1,23.2-161.2-36.5-109-48.4c12.3-2.4,13.7-10,0.5-7.6
	c-31.3,1.9-71.6,18-33.7,80.6c0,0,5.2,2.4,7.6,0c0,0-14.2-31.8-3.3-40.8c50.3,47.9,162.1,56.4,232.3-37
	c23.7-31.3,51.2-49.3,77.7-60.2c-42.7-10.4-91-11.4-117.6-3.3c-3.3-42.2-5.7-54-13.7-72.1c-3.8-8.1-4.3-12.8,14.2-18
	c11.4-3.3,58.8-14.2,99.6-32.7c28.9-13.3,48.8-28,54-33.2c4.3-3.8,19.4-20.9,13.7-34.6s-19.4-14.7-36-13.3
	c-14.2,1.4-20.9,1.9-109.5,21.3c-46.5,9.5-73,10-89.6,15.2c0,0-21.8-53.1-94.3-55.5c-9.5,0-24.7-1.9-32.2-9.5
	c-8.1-6.2-22.3-5.2-34.1,1.4c-9,4.7-16.6,12.3-18,19.4c-3.3,12.3-7.6,11.4-24.7,25.6c-21.3,17.5-70.2,56.4-16.1,155.5
	c-49.3,28.4-56.4,61.6-56.4,61.6l22.8-1.4c-3.3,6.2-6.2,26.5-6.2,35.6c-0.5,51.7,15.2,94.3,46.9,126.6
	c34.6,35.1,87.2,55.5,143.2,55.5c39.3,0,77.3-10.4,106.7-28.9c13.3-8.5,25.1-19,34.1-30.8c-112.8,70.2-216.2,10.4-237-49.3
	c-20.4-58.3,16.1-103.4,62.6-92.4c64.9,15.6,99.1,6.6,109-24.7c8.1,2.8,26.5,2.4,37.9-3.3C384.5,305.2,423.8,291,480.2,301.4
	L480.2,301.4z"/>
<path id="White" class="st0" d="M172.1,228.9L172.1,228.9l-68.7,36l-6.6-13.8C96.7,251.2,133.7,246.9,172.1,228.9z M267.2,240.3
	L267.2,240.3c-2,0-4,0.3-6,1c-12.7,4-18.7,21.9-15.7,42.3c1-3.4,3-6.1,5.7-7.7c1.9-1.1,4-1.5,6.3-1.4l0,0
	c6.7,0.4,14.4,5.8,19.3,14.7c6.6,11.4,5.2,24.7-2.4,28.9c-4.8,2.7-11,1.2-16.6-3c9.5,13.6,22.4,20.9,33.2,17.2
	c15.2-4.7,20.9-29.4,12.8-54.5C296.9,255.7,281.4,240.3,267.2,240.3z M367.9,253.5c-5.8-22.4-20.3-38.6-34.4-39.5l0,0
	c-2-0.1-4,0.1-5.9,0.6c-13.8,3.8-21,23-18.2,45.1c1.1-3.2,3.1-5.7,5.9-7.2c0.9-0.4,1.8-0.7,2.8-0.8l0,0c6.8-0.9,15.4,5,19.9,14.6
	c5.2,10.9,3.8,22.8-3.8,26.5c-3.9,1.8-8.7,0.9-13.2-2.1c8.6,12.6,20.2,19.6,30.7,16.7C367.4,303.3,374.5,279.1,367.9,253.5z"/>
<path id="Orange_Accents" class="st1" d="M175.6,73.4c-7,0.3-14.3,4.7-18.2,19.4L193,79.6C193,79.6,184.6,73.1,175.6,73.4z
	 M246.1,89c-4.7,0.5-9,2.4-11.4,6.2c-2.8,3.8-3.8,9.5-1.9,14.2c-4.3,10.4-3.8,22.8-1,32.2c3.3,10,8.1,17.1,14.7,20.4
	c3.8,2.4,8.5,2.4,11.9,1.4c4.7-1.4,8.1-4.7,10.4-10c5.2-10.9,4.3-27,0.5-37.9c1.9-1.4,4.3-4.7,5.2-7.6l-3.3-0.9
	c-0.9,1.9-1.9,3.8-3.3,5.2C262.2,96.6,254.1,88.6,246.1,89L246.1,89z M246.5,96.1c5.7,0,10.9,10.9,13.7,20.4
	c-4.3,1.9-7.6,1.9-10.9,0.5c-3.8-1.4-7.1-4.7-9-8.5c-1.4-3.3-1.4-7.1,0.5-10C241.8,97.1,244.2,96.1,246.5,96.1L246.5,96.1z
	 M540,110.1c-7.8-0.7-91.5,57.6-91.5,57.6c55.4-18.5,100-46.5,92-57.4C540.3,110.2,540.2,110.1,540,110.1L540,110.1z M504,111.8
	c0,0-90.5,19.9-147.4,27c-61.2,7.1-115.7,49.3-115.7,49.3c-23.2,15.2,0.5,15.2,36.5,19.9c55.5,1.4,90.5-10.4,138.4-38.9
	C459.9,138.3,504,111.8,504,111.8L504,111.8z M280.2,112.3c-0.5,0-1,1-1.4,1.9c-0.9,1.9-1.4,4.7-0.5,6.2c0,0.5,0.9,0.5,2.4,0
	c0.5,0,0.9-0.5,0.9-0.9c0.9-0.9,1-2.8,0.5-3.8c-0.5-0.5-1-0.5-1.9-0.5c0-0.9,0-1.4,0.5-2.8L280.2,112.3L280.2,112.3z M288.7,117
	l-3.8,2.8c-0.5,1.4-1,4.3-1,6.6l-0.5,7.6c-0.5,4.7-1.4,8.5-3.8,10l-1,4.3h0.5c2.8-1.4,4.7-4.3,6.2-9l0.5-4.3l0.5-3.8v-1l0.5-3.8
	c0-0.9,0.5-1.9,0.5-2.8v-0.5l0.5,0.5c0.9,1.4,3.8,3.8,5.2,4.7l0.5,0.5H293c-4.7,1.9-5.7,5.2-4.7,6.6c0.5,0.9,1.4,1.9,1.9,2.4
	c0.9,0.5,2.4,0.5,3.8-0.5c2.8-1.4,4.7-4.7,3.8-8.1v-0.5l-0.5-1.4c-0.5-1.4-0.9-2.4-2.4-3.8l-3.3-2.9l-1-0.9
	c-0.9-0.5-1.4-1.4-1.4-2.4V117H288.7L288.7,117z M239.4,119.8c7.1,4.3,13.7,4.3,21.8,0c1.4,5.2,2.8,12.3,2.8,18
	c0,4.7-0.5,10.9-2.8,14.7c-1.4,2.4-2.8,3.3-5.2,3.8c-7.6,1.4-14.2-9.9-16.6-18.5C238,132.2,238,125.5,239.4,119.8L239.4,119.8z
	 M293.9,129.3h0.5c0,0,0,0.5,0.5,0.5c0,1.4,0,2.9-0.5,3.3c-0.5,0.9-1,1.4-1.9,1.9s-1.9,0-2.4-0.5c-0.9-0.5-0.9-1.4-0.5-2.4
	S291.5,130.3,293.9,129.3z"/>
</svg>
