<svg version="1.1" id="Layer_1" xmlns="http://www.w3.org/2000/svg" xmlns:xlink="http://www.w3.org/1999/xlink" x="0px" y="0px"
	 viewBox="0 0 600 600" style="enable-background:new 0 0 600 600;" xml:space="preserve">
<style type="text/css">
	.st0{fill:#FFFFFF;}
	.st1{fill:#CC3433;}
</style>
<path id="Outline" class="st0" d="M316.1,600c-80.4,0.1-155.9-31.1-212.7-87.9c-56.7-56.7-87.9-132-87.9-212.1
	c0-80.1,31.2-155.5,87.9-212.1C160.1,31.2,235.5,0,315.6,0c0.3,0,0.6,0,0.9,0C426,0,526.7,59.5,579.4,155.6l5,9.1l-121.8,72.8
	l-5.2-10.2c-15.3-29.7-39-53.5-68.7-68.7c-77.9-39.9-173.7-9.1-213.7,68.8c-19.4,37.7-22.9,80.7-9.9,121.1
	c13,40.4,40.9,73.2,78.6,92.6c37.7,19.4,80.7,22.9,121.1,9.9c40.4-13,73.2-40.9,92.6-78.6l5.2-10.2l121.8,72.8l-4.9,9
	C526.8,540.2,426,600,316.1,600z"/>
<path id="Red" class="st1" d="M555.5,442.4l-84.6-50.5c-22.4,37.8-57.4,65.7-99.6,79.3c-45.8,14.7-94.6,10.8-137.4-11.2
	c-42.8-22-74.5-59.3-89.2-105.1C130,309,134,260.2,155.9,217.4c45.3-88.4,154.1-123.4,242.5-78c30.3,15.6,55.2,39,72.5,68l84.6-50.5
	C505.2,72.8,414.2,21.1,315.6,21.4h0C162,21.4,37,146.4,37,300s125,278.6,278.6,278.6c0.2,0,0.4,0,0.5,0
	C414.7,578.6,505.4,526.7,555.5,442.4z"/>
</svg>
