<svg version="1.1" id="Layer_1" xmlns="http://www.w3.org/2000/svg" xmlns:xlink="http://www.w3.org/1999/xlink" x="0px" y="0px"
	 viewBox="0 0 600 600" style="enable-background:new 0 0 600 600;" xml:space="preserve">
<style type="text/css">
	.st0{fill:#FFFFFF;}
	.st1{fill:#C6011F;}
</style>
<path id="White_2_" class="st0" d="M329.5,97.1c-48.6,0-95.7,12.7-140,37.7c-43.7,24.7-75.3,56.3-94.1,78.5
	c-47.8,56.4-65.2,68.1-68.1,69.8L0,291.9l24,17.8c27.1,20.2,41.8,37.1,57.5,55c5.3,6.1,10.8,12.4,16.9,19l1,1.1
	c29,31,56.4,60.3,93.1,82.1c41.3,24.6,88.2,36,147.5,36c53.7,0,105.4-12.8,149.6-37.1c41-22.5,74.2-53.7,96.1-90.3l13.9-23.2h-27
	h-84.9h-5.1l-4.1,3.1c-46.6,35.1-91.4,51.4-141.1,51.4c-56.4,0-108.5-23.7-132.6-60.5l0,0l0,0c-9.9-14.9-14.9-31.8-14.9-50.2
	c0-15.7,10.5-41.2,34-62.9c20.3-18.7,57.6-41,119.8-41c68.3,0,118.8,31.7,132.8,54.2l4.5,7.2h8.5H575h25l-11.3-22.3
	c-20.7-40.7-57.3-75-106-99.2c-22.8-11.3-47.5-20.1-73.6-26C383,100.1,356.3,97.1,329.5,97.1L329.5,97.1z"/>
<path id="White_4_" class="st1" d="M109.6,373.3c57.3,61.2,106.3,114.3,230.4,114.3c108.8,0,193-53.8,232.5-119.9h-84.9
	c-39.9,30.1-88.5,54.5-150.3,54.5c-57,0-116.7-23.7-145.4-67.4c-11.2-16.8-17.5-36.3-17.5-58.7c0-38.8,47.6-119.2,169.2-119.2
	c71.3,0,128,32.8,145.8,61.5H575c-39.9-78.7-142.6-125.9-245.5-125.9c-101.1,0-177.9,58.4-222.3,110.8
	c-58.7,69.3-74.1,74.2-74.1,74.2C71.1,325.7,86.1,348.1,109.6,373.3z"/>
</svg>
