<?xml version="1.0" encoding="utf-8"?>
<!-- Generator: Adobe Illustrator 25.2.3, SVG Export Plug-In . SVG Version: 6.00 Build 0)  -->
<svg version="1.1" id="Layer_1" xmlns="http://www.w3.org/2000/svg" xmlns:xlink="http://www.w3.org/1999/xlink" x="0px" y="0px"
	 viewBox="0 0 600 600" style="enable-background:new 0 0 600 600;" xml:space="preserve">
<style type="text/css">
	.st0{fill:#FFFFFF;}
	.st1{fill:#C4CED4;}
</style>
<path id="Outline" class="st0" d="M430.9,600c-6.7,0-9.4-4.2-14.4-11.8c-2.6-4-6.3-10-11-17.6c-7.9-12.7-18.6-30.5-32-52.8
	c-17.6-29.3-35.2-58.9-42.3-71h-6.5V513c0,17.3,2.3,27.2,7.2,31.4c5.2,4.4,16.1,5.2,31,5.2h11.5V600h-199v-50.4h11.5
	c17.2,0,26.3-1.8,30.4-6.1c4.4-4.5,6.3-14.8,6.3-33.4v-103c-71.3-2.6-112.1-37.7-133.9-67.4C63.8,304.4,49,257.2,49,210.1
	c0-59.9,18.9-112.1,54.7-151.1C138.7,20.9,189.1,0,245.6,0c35.8,0,60.4,8.3,76.6,13.8c3.6,1.2,7.8,2.7,10.6,3.4l2.5-7.8h37l5,145.8
	h-43.7l-1.7-9.6c-4.7-27.3-15.2-50-30.3-65.6c-14.7-15.2-32.3-22.9-52.3-22.9c-55.2,0-93.7,59-93.7,143.5
	c0,71.6,26.2,125.8,68,143.3v-36.4c0-19.8-1.8-30.2-6.2-35c-4-4.4-13.2-6.3-30.6-6.3h-11.5v-49.5c0,0,19.2-1.6,23.3-1.9
	c21.8-1.8,40.6-3.4,72-5.3c30.6-1.8,59.1-2.9,74.5-2.9c30.3,0,73.7,4.3,108.1,24.6c34.1,20.2,52.2,52.4,52.3,93.1
	c-0.2,60.5-41.7,86.8-67.4,98.4c13.6,14.7,27.1,39.8,43.6,72.1c9.7,18.9,19.6,38.4,25.8,44.7c10.6,9.1,21.5,10.4,27.1,10.4
	c1.5,0,2.5-0.1,2.8-0.1l13.6-2.6l-0.3,14v38.7l-11.5,0C538.2,599.9,437.3,600,430.9,600L430.9,600L430.9,600z M386.6,287.3
	c-4.7,29.2-13.9,65.2-26.2,101.6c23.5-9.4,32.7-30.1,32.7-66.9C393.1,312,391.8,299,386.6,287.3z M324.7,307.2
	c7.3-11.2,13.8-24.6,19.6-40.1l2.8-7.5h6.6c-5.2-1.3-11.1-2-17.7-2h-11.2V307.2z"/>
<path id="Black_1_" d="M499.7,548C480,528.6,444,426.7,414.3,420c10.9-5.5,79.5-21.5,79.8-95.7c-0.3-80.2-74.6-106.2-148.9-106.2
	c-15.8,0-44.6,1.2-73.8,2.9c-37.1,2.3-56.2,4.1-84.5,6.4v27.3c39.9,0,48.3,9.3,48.3,52.8v52.1c-55-11.6-91.1-72.9-91.1-158.9
	c0-91,42.8-155,105.2-155c23.5,0,44.2,9.4,60.6,26.4c16.5,17,28.2,41.7,33.4,71.7h22.1l-4.2-122.8h-17.4c-1.9,5.9-4.2,8.2-8.5,8.2
	c-11.7,0-39.5-17.6-89.7-17.6c-54.5,0-101,20-133.4,55.2c-32.9,35.8-51.7,84.6-51.7,143.3c0,40.5,11.7,86.3,38.5,122.7
	c26.8,36.4,70,62.9,132.9,62.9c1.1,0,2.1,0,3.2-0.1v114.5c0,42.4-9.3,51.1-48.3,51.1v27.3h175.9v-27.3c-36.2,0-49.7-5.2-49.7-48.2
	v-77.8h24.6c0,0,90.7,153.3,93.1,153.2c6.4,0,108.3-0.1,108.3-0.1v-27.1C539.2,561.3,518.8,564.6,499.7,548z M313.2,406.8v-19.2
	c1.8-0.1,3.5-0.1,5.3-0.1c5.7,0,10.8,0,15,1.2c4.7,0.5,9.3,1.7,13.6,3.5l1.4-4.1c13.6-39.9,24.9-83.4,28.7-116.9v0h-22.1
	c-11.2,30.1-25.2,52.6-41.9,67.7V246h22.7c45,0,68.7,30.2,68.7,76C404.7,381.8,380.5,408,313.2,406.8z"/>
<path id="Silver" class="st1" d="M175.4,48.3c0,0-95.4,37.4-95.5,158.9c-0.1,124.5,92,148.1,92,148.1s-47.4-59.5-47.3-155.1
	C124.8,97.3,175.4,48.3,175.4,48.3L175.4,48.3z M254.2,561.1V250l40.1-2.8v313.8H254.2z M470.4,325.9c0.2,61.1-74.6,76.5-74.6,76.5
	s27.6-16.7,27.7-75.8c0-59.7-26.4-76.6-26.4-76.6S470.2,256.6,470.4,325.9z M397,426.2c20.3,10.2,49.2,55.4,64.6,92.4
	c16.7,33.3,28.6,42.8,28.6,42.8l-57.2-0.1c0,0-51.7-92.4-75.4-125.4c0,0,17.4-2.8,25.9-5.2C391.4,428.4,397,426.2,397,426.2
	L397,426.2z"/>
</svg>
