<?xml version="1.0" encoding="utf-8"?>
<!-- Generator: Adobe Illustrator 25.2.3, SVG Export Plug-In . SVG Version: 6.00 Build 0)  -->
<svg version="1.1" id="Layer_1" xmlns="http://www.w3.org/2000/svg" xmlns:xlink="http://www.w3.org/1999/xlink" x="0px" y="0px"
	 viewBox="0 0 600 600" style="enable-background:new 0 0 600 600;" xml:space="preserve">
<style type="text/css">
	.st0{fill:#002D62;}
	.st1{fill:#FFFFFF;}
	.st2{fill:#E7E9EA;}
</style>
<polygon id="Blue_Outline" class="st0" points="313.3,587.1 313.3,463.9 379.8,440.1 379.8,376.9 220.2,376.9 220.2,440.1 
	286.7,463.9 286.7,587.1 0,587.1 0,463.9 66.4,440.1 66.4,160.1 0,136.1 0,12.9 286.7,12.9 286.7,136.1 220.2,159.9 220.2,223.1 
	379.8,223.1 379.8,159.9 313.3,136.1 313.3,12.9 600,12.9 600,136.1 533.6,159.9 533.6,440.1 600,463.9 600,587.1 "/>
<polygon id="White" class="st1" points="89.4,144.1 89.4,144.1 89.4,456.2 22.9,480 22.9,564.2 22.9,564.2 22.9,564.2 22.9,564.2 
	22.9,564.2 263.8,564.2 263.8,500.6 263.8,480 263.8,480 263.8,480 263.8,480 263.8,480 197.3,456.2 197.3,354 402.7,354 
	402.7,456.2 336.2,480 336.2,564.2 336.2,564.2 336.2,564.2 336.2,564.2 336.2,564.2 577.1,564.2 577.1,480 577.1,480 577.1,480 
	577.1,480 577.1,480 510.6,456.2 510.6,143.8 577.1,120 577.1,35.8 577.1,35.8 577.1,35.8 577.1,35.8 577.1,35.8 336.2,35.8 
	336.2,120 336.2,120 336.2,120 336.2,120 336.2,120 402.7,143.8 402.7,246 197.3,246 197.3,246 197.3,143.8 263.8,120 263.8,35.8 
	263.8,35.8 263.8,35.8 263.8,35.8 263.8,35.8 22.9,35.8 22.9,35.8 22.9,120 "/>
<path id="Shadow" class="st2" d="M424.4,332.8L403,354.3H197.6v102l0,0l-21.5,15.2V332.8H424.4z M555.9,57.6v47.5l-66.4,23.8v342.5
	l21.5-14.9V144.3l66.4-23.8V36.4l0,0l0,0l0,0l0,0L555.9,57.6z M336.5,120.6L336.5,120.6l66.4,23.8l21.5-15.2L358,105.4L336.5,120.6
	L336.5,120.6L336.5,120.6z M110.8,129.2l-66.4-23.8l-21.2,15.2l0,0l66.4,23.8l0,0l0,0L110.8,129.2z M242.3,57.6v47.5l-66.4,23.8
	v138.9l21.5-21.5l0,0l0,0l0,0V144.1l66.4-23.8V36.1l0,0l0,0l0,0l0,0L242.3,57.6z M336.5,564.5L336.5,564.5h240.9v-84.2l0,0l0,0l0,0
	l0,0l-21.5,14.9V543H358L336.5,564.5L336.5,564.5L336.5,564.5L336.5,564.5L336.5,564.5z M22.9,564.5L22.9,564.5L22.9,564.5h240.9
	v-63.6v-20.6l0,0l0,0l0,0l0,0l0,0l0,0l-21.5,14.9V543H44.1L22.9,564.5L22.9,564.5L22.9,564.5z"/>
</svg>
