<?xml version="1.0" encoding="utf-8"?>
<!-- Generator: Adobe Illustrator 25.2.3, SVG Export Plug-In . SVG Version: 6.00 Build 0)  -->
<svg version="1.1" id="Layer_1" xmlns="http://www.w3.org/2000/svg" xmlns:xlink="http://www.w3.org/1999/xlink" x="0px" y="0px"
	 viewBox="0 0 600 600" style="enable-background:new 0 0 600 600;" xml:space="preserve">
<style type="text/css">
	.st0{fill:#FFFFFF;}
	.st1{fill:#005A9C;}
</style>
<path id="Outline" class="st0" d="M254.3,0l-11.6,0L101,0.4l-11.5,0v11.5v55.5V79h11.5h29.5v301.8H98.8H87.3v11.5v56.4v11.5h11.5
	h91.4l-13.7,57.4h-34H131v11.5v59.3V600l11.6,0l147.2-0.3l11.5,0v-11.5v-59.1v-11.5h-11.5h-27c1.8-7.8,4.1-17.8,6.3-27.6
	c2.6-11.4,5.1-22.3,6.8-29.7h83.1c3.2,13.9,9.3,40.7,13.1,57.4h-27h-11.5v11.5v59.1v11.5l11.5,0l147.2,0.3l11.6,0l0-11.6l0-59.3
	l0-11.5h-11.5h-33.9c-2.3-9.5-6-24.9-9.3-39.1c-1.6-6.5-3.1-12.9-4.4-18.3h56.6h11.5v-11.5V330.5v-11.5h-11.5H442h-11.5v11.5V378
	l-5.5,0c-10.3-43-54.2-226.5-54.7-228.6l-2.1-8.9H359h-83.3h-9.1l-2.1,8.9c-0.5,2-42,175.9-53.7,224.8V79h32h11.5V67.5V11.6V0
	L254.3,0z M294.6,378c5.1-22,14.9-64.8,22.7-99.2c7.9,34.4,17.7,77.2,22.7,99.2H294.6L294.6,378z"/>
<path id="Blue" class="st1" d="M442,389.5l-26.2,0c-1.2-5.1-56.8-237.4-56.8-237.4h-83.3c0,0-55.5,232.3-56.7,237.4h-19.7v-322h43.5
	V11.6l-141.7,0.4v55.5h41v324.8H98.8v56.4h106l-19.2,80.4h-43.1v59.3l147.2-0.3v-59.1h-41.4c1.6-7.3,17.3-75.7,18.3-80.4h101.5
	c1.1,4.7,16.8,73.1,18.4,80.4H345v59.1l147.2,0.3l0-59.3h-43c-1.1-4.6-17.5-73.1-19.2-80.4h71.3V330.5H442V389.5z M280.1,389.5
	c1.8-7.4,33-143.7,37.2-162.4c4.3,18.8,35.5,155.1,37.2,162.4H280.1z"/>
</svg>
