<?xml version="1.0" encoding="utf-8"?>
<!-- Generator: Adobe Illustrator 25.2.3, SVG Export Plug-In . SVG Version: 6.00 Build 0)  -->
<svg version="1.1" id="Layer_1" xmlns="http://www.w3.org/2000/svg" xmlns:xlink="http://www.w3.org/1999/xlink" x="0px" y="0px"
	 viewBox="0 0 600 600" style="enable-background:new 0 0 600 600;" xml:space="preserve">
<style type="text/css">
	.st0{fill:#FFFFFF;}
	.st1{fill:#BF0D3E;}
	.st2{fill:#041E42;}
</style>
<path id="White" class="st0" d="M550.1,138.3H50c-13.3,0-26,5.1-35.5,14.4C5.1,162.2-0.1,175,0,188.4v223.1
	c-0.1,13.3,5.1,26.1,14.5,35.6c9.4,9.4,22.2,14.7,35.5,14.7h500c27.6-0.1,50-22.6,49.9-50.2V188.3c0.2-27.4-21.9-49.9-49.3-50.1
	c0,0,0,0,0,0C550.5,138.3,550.3,138.3,550.1,138.3z"/>
<path id="Red" class="st1" d="M582.4,188.3c0.2-17.7-14-32.3-31.8-32.5c-0.2,0-0.4,0-0.6,0H410.3l80.2,134l7.4,0.9l4.7,6.1v5.7
	l5.1,1l4.7,6.4v5.5l5.2,0.9l5.3,5.8V335c6.3,5.7,13.4,10.4,21.1,14.1c7.1,2.7,7.9,14.1,12.1,20.1c5.3,8.8,12.6,12.3,11.1,17.2
	c-3.6,13.2-17,35.4-29.6,36.4h-49.6V444h62.2c18-0.1,32.4-14.7,32.4-32.6l0-0.1L582.4,188.3"/>
<path id="Blue" class="st2" d="M362.6,155.8H50c-8.6-0.1-17,3.3-23.1,9.4c-6.1,6.2-9.5,14.5-9.4,23.1v223.2
	c-0.1,8.6,3.3,16.9,9.4,23c6.1,6.1,14.5,9.6,23.1,9.6h202.9c-5-8.5-10.6-18.2-12.4-21.1h0h-24c0-60,20.3-93.3,44.6-99.9
	c3.3-0.6,1.7-17-2.5-22h-14.1c-2.2,0-0.9-4.2-0.9-4.2l11.4-24.3l-1.5-6.7h-42.1l34.6-24.2c1.6-63.7,67-68.7,106.4-42.2
	c23.4,15.5,25.2,46.2,23.4,67.4c-0.3,1.4-6.1,0.5-6.1,0.5s-4,23.4,6.4,23.4H422c18.7-0.7,36.8,11.9,36.8,11.9l4.4-16.1L362.6,155.8z
	 M84.8,397.9L84.8,397.9l-0.2,0c-12.1,0-22-9.8-22-21.9c0-0.1,0-0.2,0-0.3c0-12.3,9.9-22.2,22.2-22.2s22.2,9.9,22.2,22.2
	C107,388,97,397.9,84.8,397.9z"/>
</svg>
