<?xml version="1.0" encoding="utf-8"?>
<!-- Generator: Adobe Illustrator 25.2.3, SVG Export Plug-In . SVG Version: 6.00 Build 0)  -->
<svg version="1.1" id="Layer_1" xmlns="http://www.w3.org/2000/svg" xmlns:xlink="http://www.w3.org/1999/xlink" x="0px" y="0px"
	 viewBox="0 0 600 600" style="enable-background:new 0 0 600 600;" xml:space="preserve">
<style type="text/css">
	.st0{fill:#FFFFFF;}
	.st1{fill:#FF5910;}
</style>
<path id="White" class="st0" d="M299.9,300.1l12.2-28.1l-0.5-0.8L206.1,141.6v45.1l0.8,0.4c28.3,14.4,67.3,45.1,91.7,109.6
	L299.9,300.1 M392.2,298.6L392.2,298.6l0-61.4l-2.4,1.7c-9,6.4-17.6,14.4-25.7,23.8l-0.8,0.9L392.2,298.6 M145.4,0
	c-15,0-28,5.7-37.7,16.4c-8.6,9.5-13.3,21.7-13.4,34.4l0,0v0c0,9.3,2.8,18.4,8.2,26.3l11.6,17.1l11.3-17.4c2.4-3.6,5.3-5.5,8.7-5.5
	c0.9,0,1.9,0.1,2.9,0.4c3.6,0.9,5.9,2.7,6.7,3.6v90.1c-12.5,4.3-23.9,11.5-32.7,20.6c-13.1,13.6-20,30.8-20,49.8
	c0,25.1,11.4,39.8,20.9,47.7c10.8,9,23.1,12.5,29.4,13.7l2.4,0.5v71c-0.9,1-3.2,2.8-6.7,3.6c-1,0.2-2,0.4-2.9,0.4
	c-3.4,0-6.3-1.8-8.7-5.5L114.1,350l-11.6,17c-5.3,7.8-8.2,16.9-8.2,26.3l0,0v0c0,12.7,4.7,25,13.3,34.5
	c9.7,10.7,22.8,16.4,37.8,16.4c11.5,0,24-3.5,36.4-10.1c12.4,6.6,24.9,10.1,36.4,10.1c15,0,28-5.7,37.7-16.4c2.3-2.5,4.3-5.2,6-8
	V510c0,11.4-7.6,19.4-13.1,20.8c-0.4,0.1-0.8,0.2-1.1,0.2c-1.7,0-3.4-2.1-4.2-3.4L232,510.4l-11.5,17.1c-5.3,7.8-8.1,16.7-8.1,25.6
	c0,11.5,4.3,22.6,12.1,31.2c9.3,10.3,22.1,15.8,36.8,15.8c12,0,25.2-3.8,38.5-10.9c13.3,7.2,26.5,10.9,38.5,10.9
	c14.7,0,27.5-5.5,36.8-15.8c7.8-8.5,12.1-19.6,12.1-31.2c0-8.9-2.8-17.7-8.1-25.5l-11.4-17.1l-11.4,17.1c-0.7,1.1-2.2,3-3.7,3
	c-0.3,0-0.6,0-1-0.1c-5.5-1.4-13.8-10.2-13.8-20.4v-87.7c1.3,2,2.8,3.8,4.4,5.6c9.7,10.7,22.7,16.4,37.7,16.4
	c11.5,0,24-3.5,36.4-10.1c12.4,6.6,24.9,10.1,36.4,10.1c15,0,28-5.7,37.7-16.4c8.6-9.5,13.3-21.7,13.4-34.4l0-0.1l0-0.1
	c0-9.4-2.9-18.5-8.2-26.3l-11.6-17l-11.2,17.3c-2.4,3.6-5.3,5.5-8.7,5.5c-0.9,0-1.9-0.1-2.9-0.4c-3.6-0.9-5.9-2.7-6.8-3.6v-70.6
	l4.1-0.8c6.3-1.3,18.6-4.7,29.4-13.7c9.5-7.9,20.9-22.6,20.9-47.7c0-37.5-26.6-61.8-54.4-70.9V75.5c0.9-1,3.2-2.8,6.8-3.6
	c1-0.2,2-0.4,2.9-0.4c3.4,0,6.3,1.8,8.7,5.5l11.2,17.3l11.7-17c5.3-7.8,8.2-16.9,8.2-26.3l0-0.1l0-0.1c-0.1-12.7-4.8-25-13.4-34.4
	C481,5.7,467.9,0,452.9,0c-11.5,0-24,3.5-36.4,10.1C404.1,3.5,391.6,0,380.1,0c-15,0-28,5.7-37.7,16.4c-8.6,9.4-13.3,21.7-13.3,34.4
	c0,9.4,2.8,18.5,8.2,26.3l11.6,17.2l11.3-17.4c2.4-3.6,5.3-5.5,8.7-5.5c0.9,0,1.9,0.1,2.9,0.4c3.6,0.9,5.9,2.7,6.7,3.6v104
	c-14.7,8.5-28.2,19.1-40.5,31.8c-41.4-50.2-95.2-115.7-113.9-138.7c1.1-0.5,2.5-0.9,3.9-1.1c0.5-0.1,1.1-0.1,1.6-0.1
	c1.2,0,5,0,8.6,5.5l11.2,17.3l11.6-17c5.3-7.8,8.1-16.9,8.2-26.3l0,0l0,0c0-12.8-4.8-25-13.4-34.5C246.2,5.7,233.1,0,218.1,0
	c-11.5,0-24,3.5-36.4,10C169.3,3.5,156.9,0,145.4,0L145.4,0z M219.8,368.8V265.5c22.8,23.8,39.4,57.1,42,79.3v23.5
	c-0.2-0.4-0.5-0.8-0.7-1.1l-11.6-17.2l-11.3,17.4c-2.4,3.6-5.3,5.5-8.7,5.5c-0.9,0-1.9-0.1-2.9-0.4
	C223,371.5,220.7,369.7,219.8,368.8L219.8,368.8z M338,346.7c0.4-4.8,1.6-10.6,3.6-16.9c12.4,15.3,25.9,32,33.4,41.4
	c-1.1,0.5-2.4,1-3.9,1.3c-0.3,0.1-1.2,0.2-2.2,0.2c-3.8,0-6.6-1.6-8.9-5.2l-11.4-17.6L338,366V346.7L338,346.7z"/>
<path id="Orange" class="st1" d="M490.3,393.4c0-6.6-2-13.1-5.8-18.6c-6,9.2-15.5,13.6-26.3,11c-9.6-2.3-17.2-9.1-17.3-15.5V224.7
	l2,0.8c10.9,4.5,18.7,14.8,21.1,27.7c0.5,2.6,0.7,5.1,0.7,7.6c0,8.9-3.3,16.7-8.6,23c9.9-2,39.2-10.9,39.2-47.9
	c0-34.1-27.6-55-53.2-60l-1.2-0.2V74c0.1-6.4,7.7-13.2,17.3-15.6c10.8-2.6,20.3,1.7,26.3,11c3.8-5.5,5.8-11.9,5.8-18.6
	c0-9.3-3.5-18.3-9.8-25.3c-14.3-15.7-37.9-15.8-63.1-0.1l-0.8,0.5l-0.8-0.5c-25.3-15.7-48.9-15.6-63.2,0.1
	c-6.3,6.9-9.7,15.9-9.8,25.2c0,6.7,2.1,13.1,5.8,18.6c6-9.2,15.5-13.6,26.3-11c9.6,2.3,17.1,9.2,17.2,15.6v113.6l-0.8,0.4
	c-19.8,10.3-37.5,24.8-52.6,43l-1.1,1.4l-1.1-1.4c0,0-129.9-157.5-130.2-158.7c1.5-6.7,10.1-13,19.8-14.4
	c9.8-1.4,18.1,3.1,23.6,11.5c3.7-5.5,5.8-12,5.8-18.6c0-9.3-3.5-18.3-9.8-25.3c-14.3-15.7-37.9-15.8-63.1-0.1l-0.8,0.5l-0.8-0.5
	c-25.3-15.7-48.9-15.6-63.2,0.1c-6.3,6.9-9.8,15.9-9.8,25.3c0,6.7,2.1,13.1,5.8,18.6c6-9.2,15.5-13.6,26.3-11
	c9.6,2.3,17.1,9.2,17.2,15.6V176l-1.2,0.3c-25.6,5.7-51.5,26.3-51.5,59.7c0,37,29.4,45.9,39.3,47.9c-5.3-6.2-8.6-14.2-8.6-23.1
	c0-2,0.2-4.1,0.5-6.2c1.9-12.7,9.2-23.2,19.5-28.3l2.1-1v144.9c-0.1,6.4-7.7,13.2-17.2,15.5c-10.9,2.6-20.3-1.7-26.3-11
	c-3.8,5.5-5.8,11.9-5.8,18.6c0,8.9,3.3,18.1,9.8,25.3c14.3,15.7,37.9,15.8,63.2,0.1l0.8-0.5l0.8,0.5c25.3,15.7,48.9,15.6,63.1-0.1
	c6.3-6.9,9.8-15.9,9.8-25.3c0-6.7-2.1-13.1-5.8-18.6c-6,9.2-15.5,13.6-26.4,11c-9.6-2.3-17.1-9.1-17.2-15.6V236l2.3,1.6
	c36,24.6,63.8,74.7,67.2,106.3v166c0,17.7-12,31.2-23.5,34.1c-8.1,2-15.2-1.5-20.2-9c-3.7,5.4-5.7,11.6-5.7,17.9
	c0,7.9,2.9,15.8,8.5,22c14,15.5,38.1,15,64.4-1.3l0.8-0.5l0.8,0.5c26.3,16.3,50.4,16.8,64.4,1.3c5.5-6,8.5-13.9,8.5-22
	c0-6.3-2.1-12.4-5.7-17.9c-4.8,7.1-11.6,10.5-19.5,8.5c-11.7-2.9-24.2-17.2-24.2-33.7V346.2c0.7-11.3,5.1-25.8,12.3-41l1-2.1
	l1.5,1.8c0,0,52.7,64.8,53.1,65.9c-0.7,6.5-8.7,13.2-18.4,15.1c-5.1,1-17.2,1.5-25.3-11c-3.6,5.5-5.7,11.8-5.7,18.3
	c0,9.3,3.5,18.3,9.8,25.2c14.3,15.7,37.9,15.8,63.2,0.1l0.8-0.5l0.8,0.5c25.3,15.7,48.9,15.6,63.1-0.1
	C486.7,411.7,490.2,402.7,490.3,393.4L490.3,393.4z M299.9,300.1l-1.3-3.4c-24.4-64.5-63.4-95.2-91.7-109.6l-0.8-0.4v-45.1
	l105.5,129.6l0.5,0.8L299.9,300.1z M392.2,298.6l-28.9-35l0.8-0.9c8.1-9.4,16.8-17.4,25.7-23.8l2.4-1.7L392.2,298.6L392.2,298.6z"/>
</svg>
