<?xml version="1.0" encoding="utf-8"?>
<!-- Generator: Adobe Illustrator 25.2.3, SVG Export Plug-In . SVG Version: 6.00 Build 0)  -->
<svg version="1.1" id="Layer_1" xmlns="http://www.w3.org/2000/svg" xmlns:xlink="http://www.w3.org/1999/xlink" x="0px" y="0px"
	 viewBox="0 0 600 600" style="enable-background:new 0 0 600 600;" xml:space="preserve">
<style type="text/css">
	.st0{fill:#FFFFFF;}
	.st1{fill:#132448;}
</style>
<path id="White" class="st0" d="M390.8,0c-1.4,0-2.8,0.3-4.1,0.9c-3.7,1.6-6,5.3-5.9,9.3c0.2,7.9-9.7,43.7-31.7,104
	c-16.6,45.3-34.1,88.2-48.1,117.7C267.6,164.6,236.5,72.3,220.9,26c-2.6-7.6-4.6-13.6-6.1-18c-1.2-3.4-4.1-5.9-7.6-6.5
	c-0.6-0.1-1.2-0.2-1.8-0.2c-2.9,0-5.7,1.3-7.6,3.6c-7.6,9-30.6,31.8-49,50.2c-7.5,7.4-14.5,14.4-19.8,19.8c-3.8,3.9-3.9,10.1,0,14
	c17.6,18,45.3,58,70.6,102c14.6,25.4,26.6,49,34.9,68c-55.8-52.9-73.3-79.2-94.6-111.2c-8-12-16.2-24.4-27.1-39.3
	c-1.6-2.2-4-3.6-6.6-4c-0.5-0.1-1-0.1-1.5-0.1c-2.2,0-4.3,0.7-6,2c-2.3,1.7-6.3,5.7-14.5,13.8c-6.8,6.7-15.2,15.1-22.7,22.1
	c-9.9,9.2-13.9,11.7-15.1,12.4c-3,0.5-5.6,2.3-7.1,5c-1.8,3.3-1.7,7.3,0.4,10.4c3.6,5.5,8,10.9,12.6,16.6
	c21,25.8,49.7,61.2,48.8,153.6c-0.8,73.9-47.4,149-52.7,157.4c-2.4,3.7-2.1,7.8,0.7,12.2c0.6,1,1.5,2.3,2.7,3.9
	c2,2.7,4.8,6.4,8.7,11.2c7,8.8,16.3,20.2,24.5,30.2c9.2,11.2,18.7,22.8,20.4,25.3c1.9,2.7,4.9,4.3,8.2,4.3c0.1,0,0.2,0,0.4,0
	c3.4-0.1,6.5-2,8.2-4.9c35.3-59.6,49.3-127.1,54.8-173.3c4.6-39,4.7-73.4,2.9-98.6c9.4,8.6,21.5,19.8,35.8,32.9
	c19,17.5,38.7,35.5,48.2,44.4l1.2,130.7c-0.4,14.9-5.2,52.4-17,68.3c-2.3,3.1-2.6,7.2-0.8,10.6c1.7,3.3,5.1,5.4,8.9,5.4
	c0.1,0,0.2,0,0.3,0c42.2-1.1,50.8-1.1,92.4-1.2l0.7,0c4,0,7.6-2.4,9.1-6c1.6-3.6,0.9-7.9-1.8-10.8c-14.3-15.5-17.3-49.1-18.4-60.2
	c-0.2-2.1-0.3-3.5-0.5-4.6l-2.7-60.5c39.8,35.9,123.7,111.6,148.7,134.6c1.9,1.7,4.3,2.6,6.8,2.6c0.2,0,0.4,0,0.6,0
	c2.7-0.2,5.3-1.4,7-3.5c9.4-11.1,16.3-16,23-20.6c6.3-4.4,12.8-9,20-17.8c2.8-3.4,3-8.3,0.5-12c-29.5-43.2-47.4-91.7-44.9-199.8
	c1.7-74.1,42.3-147.5,63.6-176c3-4,2.6-9.5-0.9-13c-12.8-13-25.2-24.3-34.2-32.5c-5.6-5.1-10.1-9.2-12.4-11.6
	c-1.9-2-4.5-3.1-7.3-3.1c0,0,0,0,0,0c-2.8,0-5.4,1.2-7.3,3.2c-12.3,13.1-42.9,51.3-63.2,124c-8.9,31.8-14.4,65.9-16.5,101.2
	c-1.8,31.4-0.9,64,2.7,97.2c-26.4-24.6-71.1-66-90.3-81.3c-0.8-3.2-1.9-10.6,2.2-21.5c13.8-36.5,37.8-88.5,61.3-132.5
	c28.8-54,53.8-90.7,70.5-103.5c2.4-1.8,3.8-4.6,3.9-7.6s-1.2-5.9-3.4-7.8c-10.7-9.3-23.9-24.5-36.8-39.1
	c-11.4-13-22.1-25.3-31.1-33.6C395.7,0.9,393.3,0,390.8,0L390.8,0z"/>
<path id="Blue" class="st1" d="M47.7,164.3c8.1,0.3,50.5-45.5,56.8-50.2c45.4,62.2,46.7,83.7,151.4,178.2
	c-6.3-43.1-81.1-170.8-119.9-210.5c18.9-19.1,58.4-57.5,69.4-70.6C217,44.7,258.4,175,301.3,254l0,0c32.8-62.2,90.1-220,89.6-244
	c18.8,17.4,47.5,55,68.1,73C418.6,114,349.2,256.3,324,323.3c-7.3,19.4-1.3,31.1-1.3,31.1c22.6,17.4,98.4,88.5,112.3,101.6
	c-27.8-179.4,30.3-299,70.7-342c6.5,6.8,26,23.2,46.7,44.2C530.9,187,488.5,262,486.7,340.1c-2.5,112.4,16.4,161.4,46.7,205.7
	c-13.5,16.6-23.7,15.5-42.9,38.3C460.1,556.1,344.3,451.6,324,433.3l0,0l3.8,84.9c1,5,2.1,49.5,21.4,70.6
	c-42.6,0.1-50.8,0.1-93.4,1.2c14.2-19.2,18.6-61.1,18.9-74.1l-1.3-135.1c-16.8-16.1-99.8-91.5-107.2-99.3l0,0
	c8.8,45.4,10.1,186.6-53,293c-5.2-7.4-57.8-70.1-56.8-71.8c19.4-30.4,53.6-98.8,54.2-162.6C111.9,223.5,66.4,192.8,47.7,164.3z"/>
</svg>
