<svg version="1.1" id="Layer_1" xmlns="http://www.w3.org/2000/svg" xmlns:xlink="http://www.w3.org/1999/xlink" x="0px" y="0px"
	 viewBox="0 0 600 600" style="enable-background:new 0 0 600 600;" xml:space="preserve">
<style type="text/css">
	.st0{fill:#FFFFFF;}
	.st1{fill:#FD5A1E;}
</style>
<path id="Outline" class="st0" d="M147.9,0l-5.2,9.3c-7.2,12.9-29.6,34.2-50.1,44l-8.9,4.2l2.9,9.4c7,23.2,6.9,122.2-0.2,149.2
	l-2.4,9l8.4,4.2c20.5,10.2,42.8,32.8,50,46.7l3.5,6.8l7.6-0.6c9.3-0.7,20-1,31.7-1c5.3,0,10,0.1,14,0.2v137.1h-18.1l-17-19.8v-73.1
	v-11.5h-11.5H93.3H76l6.7,15.9c1.9,4.6,4.5,21.9,5.5,49c1,26.3-0.2,43.6-1.4,47l-4,10.7l10.6,4c16.2,6.2,42,33.8,48.7,49l3.7,8.4
	l9.1-1.8c15.1-3.1,33.7-3.6,44.3-3.7v18.8c-2.1,10.2-11.7,17.2-24.7,17.7l-18.2,0.8l8.6,16c5.8,11,15.2,32.3,15.5,42.8l0.3,11.2
	h11.2H286h11.1l0.4-11.1c0.4-10.9,9.6-32.1,15.4-43l8.1-15.4l-17.3-1.5c-17.3-1.5-22.8-5.1-26.4-18.2v-18.5
	c10.4-0.3,26.9-0.6,44.5-0.6c49.9,0,67.1,2.7,72.9,4.3l9,2.5l4.2-8.4c10.2-20.2,30.3-40.2,50-50l7.3-3.6l-1-8.1
	c-5.2-40.3-6.7-108.6-0.1-148.9l1.5-9.1l-8.5-3.4c-16.5-6.6-42-33.1-48.7-50.6l-4-10.3l-10.4,3.5c-1.3,0.4-10.1,2.4-59.2,2.4
	c-22,0-44.5-0.4-57.5-0.7v-26.9h137.2c13,2.8,21.7,12.8,23.9,27.6l1.4,9.8h9.9h55.1H524l-9.1-16.9c-8.9-16.4-21.7-60.9-20.1-82.5
	l1.5-21.5l-17.8,10.2c-11.8,2.7-94.7,6-178.1,6c-86.3,0-99-3.4-100.2-3.8l-13.6-4.5l-1.5,14.2c-2.1,19.7-3.2,21.9-10.6,36.6
	c-0.7,1.3-1.4,2.8-2.1,4.3l-6.2,12.6l13.5,3.6c13.7,3.7,16,6.3,17.1,8.7c1.8,3.9,2.3,11.3,2.4,21.9l-16.1-0.6l-18.9-18.4V97.7
	l18.5-16.2h186.8l19.7,22l3.4,3.8h5.1h55.1h17.1l-6.4-15.8c-5.5-13.6-6.1-18.4-4.3-36.8l0.9-9.2l-8.7-2.9
	c-18.9-6.2-31.7-16.1-44.1-34.2l-5.1-7.4l-8.4,3.1c-8.2,3.1-58.8,6.4-126.2,6.4c-70.7,0-104.5-3.6-110-6L147.9,0L147.9,0z
	 M277.3,317.1v-35.4c43.7,0.1,74.3,0.6,88,1.5l11.4,13.3l-21,12.8c-4,2.4-18,8.1-61.9,8.1C287.5,317.4,281.8,317.3,277.3,317.1
	L277.3,317.1z M372.4,376.5c-1.8-6.4-2.9-43.8,0.2-54.1l7-22.6l6.7,7.8v91.1l-3.5,4.1L372.4,376.5L372.4,376.5z M277.3,382.5
	c5-0.2,11.4-0.4,18.5-0.4c28.2,0,49.7,3.1,60.6,8.7l25.4,13.1l-12.6,14.6h-92V382.5L277.3,382.5z"/>
<path id="Orange" class="st1" d="M97.6,63.7c22.6-10.8,46.6-33.5,55.1-48.7c21.8,10.2,221.9,8.6,245.1,0
	c13.9,20.3,28.9,31.7,50,38.6c-1.9,19.6-1.3,26.5,5.1,42.3h-55.1L374.6,70H178.3l-25.7,22.5v104.1l25.5,24.8l32.5,1.3
	c0-38.7,0.4-46-28-53.6c9.4-19,11.3-21.2,13.8-44.8c24.3,8.1,275.8,3.7,286.7-2.5c-1.7,24.6,12.1,71.4,21.5,88.8h-55.1
	c-2.8-19.1-14.9-33.8-34.1-37.4H265.8v49.6c0,0,116.5,3.1,131.9-2.1c7.7,19.8,35.2,49,55.1,57.1c-6.7,40.6-5.4,110,0,152.2
	c-21.8,10.7-43.8,32.8-55.1,55.1c-27.4-7.5-131.9-3.7-131.9-3.7v31.1c5.4,21.3,16.8,26.5,36.9,28.2c0,0-16.1,30.3-16.7,47.9h-94.2
	c-0.4-17.2-16.8-47.9-16.8-47.9c18.1-0.8,32.9-11.6,35.7-28.2v-31.1c0,0-33-1.4-58,3.7c-7.5-16.9-35.1-47.4-55.1-55.1
	c4.6-12.3,2.4-88.3-4.3-104.4h59.4V403l23.2,27h34.9V270.3c0,0-30.5-1.5-58,0.5c-7.9-15.3-31.5-40-55.1-51.7
	C104.9,191,105.6,90.2,97.6,63.7z M265.8,270.3v57.8c0,0,73.5,4.7,95.8-9c-4,12.9-2.8,54.6,0,61.5c-28.4-14.6-95.8-8.9-95.8-8.9V430
	h108.8l23.2-27v-99.6l-26.9-31.2C354.9,270.5,297.9,270.3,265.8,270.3L265.8,270.3z"/>
</svg>
