<?xml version="1.0" encoding="utf-8"?>
<!-- Generator: Adobe Illustrator 25.2.3, SVG Export Plug-In . SVG Version: 6.00 Build 0)  -->
<svg version="1.1" id="Layer_1" xmlns="http://www.w3.org/2000/svg" xmlns:xlink="http://www.w3.org/1999/xlink" x="0px" y="0px"
	 viewBox="0 0 600 600" style="enable-background:new 0 0 600 600;" xml:space="preserve">
<style type="text/css">
	.st0{fill:#092C5C;}
	.st1{fill:#8FBCE6;}
	.st2{fill:#F9F9F9;}
</style>
<path id="Outline_1_" class="st0" d="M387.4,21.9l-16.7,0L33.8,22l-16.6,0l-2,16.5L3.8,133.3l-1.4,11.1l-2.5,20l20.1,1.1l24.4,1.3
	l16.1,0.8l3.2-15.8l1-4.8c2.5-12.4,10.8-36.5,24.9-44.8h56l0,263.9c-18.2,3.4-38.3,7.1-40.6,7.4l-15.9,2.5l0,16.1l0,28.5l0,18.8
	h18.8h188.8h2.5l0,65.6l-42.2,7.4h-17.1l0,18.7l0,28.5l0,18.8h18.8h193.1c46.1,0,82.6-11.2,108.2-33.3
	c13.2-11.4,23.4-25.5,30.1-42.1c6.5-16.1,9.9-34.5,9.9-54.8c0-32.5-10.5-59.2-31.1-79.4l-26.3-25.7c22.1-21.7,33.8-49.1,33.8-80.1
	c0-36.6-13.2-64.2-39.3-82.3c-24.3-16.8-59.4-24.9-107.4-24.9h-4.8l-21.7,0L389.4,38.4L387.4,21.9L387.4,21.9z M258.7,102h55.8
	c9.9,6.7,20.1,27.7,25.8,53.6l-81.5,0h-0.1V102L258.7,102z M258.7,366.9V221.1l40.7,6.7l0,146.5L258.7,366.9L258.7,366.9z
	 M412.2,332.4V224.2c7.2,0.3,25.3,2.3,37.5,13.8c8.9,8.5,13.6,21.4,14,38.6c-1,21.4-10.7,36.9-29.7,47.4
	C426,328.4,418,331,412.2,332.4L412.2,332.4z M412.2,507.4V394.3c15.2,1.7,73.3,11.1,74.9,54.4c-1.4,28.5-20.4,58.7-70,58.7
	L412.2,507.4L412.2,507.4z"/>
<path id="Light_Blue" class="st1" d="M21.1,146.7l24.4,1.3l1-4.8c1.6-8,11.3-48.4,39-59.8h79l0,298.2c0,0-52.4,9.7-56.5,10.3l0,0
	l0,28.5h188.8l0-27.6l-56.9-10.3V83.3h79.2c25.9,10.7,37.3,57.2,40.2,71.3l1,4.8l24.4-1.3L370.8,40.6l-337,0.2l-11.3,94.8
	L21.1,146.7z M555.8,382.1L555.8,382.1c-18.5-18-43-25.4-61-28.5c25.3-12.5,62.8-39.7,62.8-90.7c0-60.4-40.7-88.5-128-88.5h-4.8
	l-166.1,0l0,0v27.7l59.3,9.7l0,308.7l-59.3,10.3h0l0,28.5h193.1c83.4,0,129.4-39.6,129.4-111.4C581.2,420.7,572.7,398.6,555.8,382.1
	z M505.9,448.8C505.9,448.8,505.9,448.8,505.9,448.8c-1.5,38.9-28.6,77.3-88.8,77.3l-23.6,0V205.8c5-0.2,14.5-0.4,14.5-0.4
	c0.7,0,33-1.5,54.7,19c12.8,12.2,19.5,29.8,19.9,52.3l0,0c-2.6,68.4-76.9,76-76.9,76l0,22.2l5.3,0.4
	C420.5,376.2,504.3,384.7,505.9,448.8C505.9,448.8,505.9,448.8,505.9,448.8L505.9,448.8z"/>
<path id="White" class="st2" d="M258.8,174.4v17.1c3.5,0.6,59.3,9.8,59.3,9.8v319.3h0l-59.3,10.3V548l0,0h187.4
	c78.1,0,123.7-34.5,123.7-105.7c0-93.4-104.8-90.9-104.8-90.9v-0.1c0,0,81.3-21,81.3-94.2c0-58.5-40.9-82.6-121.4-82.7L258.8,174.4z
	 M482.6,273c0,1.2,0,2.5-0.1,3.7c-2.6,68.4-76.9,76-76.9,76v11.2c7.9,0.6,100.4,9.3,100.4,81c0,1.3,0,2.5-0.1,3.9
	c-1.5,38.9-26.8,77.3-87,77.3h-1.8c-18,0-32.4,0-34.9,0H382V194.7l2-0.2c4.8-0.5,14-0.5,18.2-0.5C402.3,193.9,482.6,189.4,482.6,273
	 M33.8,40.8l-11.3,94.8l13.3,0.7c0-0.1,0-0.2,0-0.3c2.1-10,12.5-51.9,42.9-63.9l0.4-0.2h85.5v309.7c0,0-52.4,9.7-56.5,10.3l0,17.1
	h178v-17.1c-3.5-0.6-56.9-10.3-56.9-10.3V71.8h86.2l0,0l0.4,0.1c30.7,12.2,42.1,66.1,44.1,75.7l9.6-0.5l2.5-0.2l1.3-0.1L360.6,40.7
	v0L33.8,40.8z"/>
</svg>
