<?xml version="1.0" encoding="utf-8"?>
<!-- Generator: Adobe Illustrator 25.2.3, SVG Export Plug-In . SVG Version: 6.00 Build 0)  -->
<svg version="1.1" id="Layer_1" xmlns="http://www.w3.org/2000/svg" xmlns:xlink="http://www.w3.org/1999/xlink" x="0px" y="0px"
	 viewBox="0 0 600 600" style="enable-background:new 0 0 600 600;" xml:space="preserve">
<style type="text/css">
	.st0{fill:#FFFFFF;}
</style>
<path id="Blue" class="st0" d="M474.5,370.3L474.5,370.3c-5.6-16.5-7.6-48.3-39.3-70.3c31.7-22,33.6-53.7,39.3-70.3
	c9.2-26.8,15.2-43.3,34.7-54.9c-69.5-40.2-35.9-76.8-93.5-134.4C365.9-9.2,287.8-13.2,233.5,28.7c-15.5-17.5-37.7-27.5-61-27.4
	c-45.1,0-81.7,36.6-81.7,81.7c0,9.8,1.7,19.1,4.8,27.8c7.8-16.1,23.3-27.2,41.1-27.2c25.6,0,46.4,22.7,46.4,50.8v92.9
	c0,9.8-3.3,53-58.9,72.7c55.7,19.6,58.9,62.9,58.9,72.7v92.9c0,28-20.8,50.8-46.4,50.8c-17.8,0-33.3-11-41.1-27.1
	c-3.2,8.9-4.9,18.3-4.8,27.8c0,45.1,36.6,81.7,81.7,81.7c24.3,0,46.1-10.6,61.1-27.4c54.2,41.8,132.4,37.9,182.2-11.8
	c57.6-57.6,24.1-94.2,93.5-134.4C489.7,413.5,483.6,397.1,474.5,370.3z M373.1,458.3c0,25.9-25,46.9-55.7,46.9
	c-19.7,0-37.1-8.7-47-21.8V363.8c9.9-13.1,27.3-21.8,47-21.8c30.7,0,55.7,21.1,55.7,46.9c0,13.7-7,26.1-18.2,34.7
	C366.1,432.2,373.1,444.5,373.1,458.3z M373.1,211.1c0,25.9-25,46.9-55.7,46.9c-19.7,0-37.1-8.7-47-21.8V116.6
	c9.9-13.1,27.3-21.8,47-21.8c30.7,0,55.7,21.1,55.7,46.9c0,13.7-7,26.1-18.2,34.7C366.1,185,373.1,197.4,373.1,211.1z"/>
<path id="Red" d="M453.7,363.9c-3.2-12.7-16-46.3-43.5-63.9c27.5-17.6,40.2-51.2,43.5-63.9c1.1-4.4,2.2-8.5,3.5-12.3
	c6-17.6,11.5-33.7,22.2-47c-26.5-21-33.8-42.2-40.8-62.9c-6.6-19.2-12.8-37.4-35.8-60.4C355.9,6.7,278.3,8.3,231.6,55
	c-10-21.8-33.6-35.4-59.1-35.4c-30.9,0-56.8,22.3-62.3,51.7c8.3-4,17.3-6,26.5-6c35.7,0,64.8,31,64.8,69.2v92.9
	c0,16.1-6.2,48.9-38,72.7c31.8,23.8,38,56.5,38,72.7v92.9c0,38.1-29.1,69.2-64.8,69.2c-9.4,0-18.4-2.2-26.5-6.1
	c5.5,29.4,31.3,51.7,62.3,51.7c25.5,0,49-13.6,59.1-35.4c46.8,46.8,124.4,48.3,171.1,1.5c23-23,29.2-41.2,35.8-60.4
	c7-20.7,14.3-41.9,40.8-62.9c-10.7-13.3-16.2-29.3-22.2-47C455.8,372.4,454.8,368.2,453.7,363.9L453.7,363.9z M391.5,458.3
	c0,36.1-33.1,65.3-74,65.3c-28.3,0-52.9-14-65.4-34.6V358.2c12.4-20.6,37-34.6,65.4-34.6c40.9,0,74,29.2,74,65.3
	c0,12.8-4.1,24.6-11.3,34.7C387.3,433.6,391.5,445.5,391.5,458.3L391.5,458.3z M391.5,211.1c0,36.1-33.1,65.3-74,65.3
	c-28.3,0-52.9-14-65.4-34.6V111c12.4-20.6,37-34.6,65.4-34.6c40.9,0,74,29.2,74,65.3c0,12.7-4.1,24.6-11.3,34.7
	C387.3,186.5,391.5,198.4,391.5,211.1z"/>
</svg>
