<svg version="1.1" id="Layer_1" xmlns="http://www.w3.org/2000/svg" xmlns:xlink="http://www.w3.org/1999/xlink" x="0px" y="0px"
	 viewBox="0 0 600 600" style="enable-background:new 0 0 600 600;" xml:space="preserve">
<style type="text/css">
	.st0{fill:#FFFFFF;}
</style>
<path id="Gray" class="st0" d="M359.9,459.4c-20.8,7.2-41.8,13.4-64.1,18.5c-20.7-6.3-40.7-13.1-60-20.6
	c-0.1-104.5,1.1-209.1,3-313.7c19.8-8.2,41.4-16.6,60.1-22.7c20.1,6.2,38.8,13,58,20.2c0.8,19,0.4,47.1-0.1,94.5
	c19.1,3.6,59.9,0.5,105.4-5.7c2.1-15.5,4.6-31,7.2-46.5c9.3-55.8,18.1-110.6,25.8-161.7c-40.3-6.2-84.2-9.8-105.9-6.7L381,37.3
	C354.8,24.2,327.9,11.7,299,0c-66.6,25.8-127.6,53.7-189.6,85.8c11.9,58.4,16.6,104.4,16.6,181.4c0,112.1-7.8,197.9-21.2,254.3
	c63,30,124,55.8,190.2,78.5c62.5-21.7,125.1-45.5,196.3-79.6c-6.2-39.7-19.1-107.5-29-149.9c-33.2,0.9-67.3,4-102.4,8.6V459.4z"/>
<path id="Red" d="M377.4,394.7V472c-26.4,9.6-53.4,17.9-82.7,24.1c-26.1-8-51.8-16.7-76.5-26.9c-0.2-112.3,1-225,3.2-337.3
	c24.6-10.7,53.8-21.8,76.9-29.7c26.6,7.9,50.5,16.8,75.1,26.4c1.7,18.6,1.4,45,0.8,90.9c18.1,0.5,43.4-1.6,72.3-5.2
	c9.8-60.9,19.7-121.4,28.4-177.8c-27.9-3.6-54.8-5.7-73.4-5.2l-11.2,30.3c-29.7-15.3-59.5-29.4-91.7-42.7
	c-59.4,23.3-114.2,48.1-170,76.5c10.3,53.3,14.5,99.7,14.5,171.6c0,104.4-6.7,187.1-18.6,244.4c56.3,26.3,111.1,49.1,170,69.7
	c60.5-21.2,119.9-43.9,176.2-70.8c-3.1-23.8-13.4-80.1-22.7-122C425,389.5,377.4,394.7,377.4,394.7z"/>
</svg>
