<?xml version="1.0" encoding="utf-8"?>
<!-- Generator: Adobe Illustrator 25.2.3, SVG Export Plug-In . SVG Version: 6.00 Build 0)  -->
<svg version="1.1" id="Layer_1" xmlns="http://www.w3.org/2000/svg" xmlns:xlink="http://www.w3.org/1999/xlink" x="0px" y="0px"
	 viewBox="0 0 600 600" style="enable-background:new 0 0 600 600;" xml:space="preserve">
<style type="text/css">
	.st0{fill:#FFFFFF;}
</style>
<path id="Glove_Yellow" class="st0" d="M574.6,175.2V251c0,62.7-10.5,100.7-60,206.5C462.2,567.3,398.2,600,321.1,600
	c-51,0-98.1-16.9-135.9-47.1l0,0L176,545l-1.3-1.3c-10.5-9.2-19.6-19.6-28.8-31.4c-1.3-1.3-1.3-1.3-2.6-2.6l0,0
	c0-1.3-1.3-1.3-1.3-2.6c-5.3-6.6-9.2-13-13-19.6c0-1.3-1.3-1.3-1.3-2.6c-13-22.2-20.9-45.7-27.5-64c-2.6-5.3-4-10.5-5.3-15.6
	c-14.3-37.8-43.1-109.7-56.3-146.4c-14.3-39.1-16.9-65.3-7.9-91.5c9.2-27.5,31.4-48.4,61.4-73.2s55-44.4,90.2-69.3
	C204.4,9.2,227.9,0,250.1,0c9.2,0,18.3,1.3,27.5,4c1.3,0,2.6,1.3,5.3,2.6c7.9,2.6,14.3,6.6,19.6,11.7l1.3-1.3
	c15.6-9.2,34.1-14.3,52.3-14.3c14.3,0,28.8,2.6,40.5,9.2c2.6,1.3,4,2.6,6.6,2.6c1.3,0,1.3,1.3,2.6,1.3c9.2,5.3,18.3,11.7,24.8,18.3
	c10.5-4,20.9-5.3,31.4-5.3c15.6,0,28.8,4,41.8,11.7l2.6,1.3c5.3,4,9.2,5.3,13,9.2C556.3,77.2,574.6,103.3,574.6,175.2"/>
<path id="Glove_Blue" d="M508,71.9c-5.3-4-7.9-5.3-15.6-10.5c-15.6-10.5-35.4-13-64,0c-1.3,0-2.6,1.3-5.3,1.3
	c-6.6-13-16.9-20.9-26.2-26.2c-4-2.6-5.3-2.6-9.2-4c-19.6-9.2-47.1-10.5-71.9,5.3c-5.3,2.6-11.7,6.6-18.3,10.5
	C291,37.8,283.2,32.7,274,28.8c-2.6-1.3-4-1.3-5.3-1.3c-18.3-6.6-47.1-2.6-74.5,16.9c-32.7,23.5-57.6,43.1-88.8,69.3
	c-57.6,47.1-70.6,74.5-47.1,138.5c13,35.4,40.5,105.8,56.3,146.4c9.2,23.5,18.3,53.6,35.4,82.4l0,0c1.3,2.6,2.6,5.3,5.3,7.9
	c0,1.3,1.3,1.3,1.3,2.6c7.9,11.9,16.9,23.5,27.5,34.1c1.3,1.3,1.3,1.3,2.6,2.6l1.3,1.3l0,0c35.4,31.4,81.1,51,131.9,51
	c94.1,0,171.3-77.2,171.3-171.3l0,0c0-90.2-73.2-163.4-163.4-163.4c-48.4,0-98.1,28.8-126.9,73.2c-11.9-30.1-39.1-95.4-58.7-143.8
	c-10.5-26.2-7.9-39.1,7.9-55c7.9-7.9,18.3-15.6,30.1-23.5c11.7-7.9,24.8-2.6,24.8,11.7v160.7c26.2-26.2,58.7-44.4,99.4-51v-133
	c2.6-1.3,5.3-4,7.9-5.3c10.5-6.6,18.3,1.3,18.3,10.5v124.2c1.3,0,1.3,0,2.6,0c35.4,0,67.9,9.2,95.4,26.2V100.9
	c2.6-1.3,5.3-2.6,6.6-2.6c10.5-4,18.3,2.6,18.3,11.7s-1.3,147.7-1.3,147.7c39.1,31.4,64,79.8,67.9,131.9
	c18.3-39.1,31.4-75.8,31.4-138.5v-75.8C552.4,112.4,538.1,92.8,508,71.9 M327.7,309.8c55,0,98.1,44.4,98.1,98.1
	c0,55-44.4,98.1-98.1,98.1c-55,0-98.1-44.4-98.1-98.1S274,309.8,327.7,309.8"/>
<path id="Ball" d="M253.1,407.8c0-18.3,6.6-34.1,16.9-47.1c20.9,27.5,20.9,66.6,0,94.1C259.7,443,253.1,426.1,253.1,407.8
	 M283.2,467.9c27.5-35.4,27.5-84.9,0-118.9c13-9.2,27.5-14.3,44.4-14.3S360.3,340,372,349c-27.5,35.4-27.5,84.9,0,118.9
	c-13,9.2-27.5,15.6-44.4,15.6C310.5,483.7,294.9,477.1,283.2,467.9 M386.4,456.2c-20.9-27.5-20.9-66.6,0-94.1
	c10.5,13,16.9,28.8,16.9,47.1C402.2,426.1,396.9,443,386.4,456.2"/>
</svg>
