<svg version="1.1" id="Layer_1" xmlns="http://www.w3.org/2000/svg" xmlns:xlink="http://www.w3.org/1999/xlink" x="0px" y="0px"
	 viewBox="0 0 600 600" style="enable-background:new 0 0 600 600;" xml:space="preserve">
<style type="text/css">
	.st0{fill:#FFFFFF;}
	.st1{fill-rule:evenodd;clip-rule:evenodd;}
</style>
<path class="st0" d="M323.4,0c-86.1,0-167.8,35.5-208.3,90.5C77.4,139.2,67,190,86.5,230c14.2,29,43.2,47.7,73.9,47.7
	c22.2,0,48.4-10.7,65.5-37.9v205.9c-49.9,57.9-44,97.4-35.8,116.2c10.4,23.6,34.8,38.2,63.8,38.2c37.6,0,74.8-23.5,97-61.4l1.2-2
	l0.8-2.2c6.4-19.2,6.4-27.2,6.4-53.8c0-13.6,0-32.2,0.7-61.1v-0.2v-0.2c0.2-20.3,0.6-57.2,1.1-76.9c36.6-14.2,83.2-35.9,116-69.5
	c39.1-40,53.3-90.3,42.3-149.6l-0.2-1.3l-0.4-1.3c-12.3-39.5-38.9-71.5-77.1-92.5C408.7,9.6,367.8,0,323.4,0L323.4,0z M363.5,219.2
	c0.1-13.7,0.2-28.4,0.2-42.8c0.1-18.3,0.1-36,0.3-51.4c15.4,0.8,22.7,3.8,26.1,6.3c12.1,9.2,18.6,29.6,14.9,47.5
	C400.4,200,383,212.8,363.5,219.2L363.5,219.2z"/>
<path class="st1" d="M497.2,127.1c-44.2-142.2-286.5-128.6-364-23c-105.6,136.1,69.2,215.3,87,83.1c-47.6-9.7,5.4-60.9,28.4-69.5
	v336.5c-109.5,119.8,27.2,167.5,82.8,72.9c8-23.9,3.8-23.6,6-108.3c0.6-50.5,1.1-92.1,2-92.7C432,292.4,518.4,241.3,497.2,127.1z
	 M427.2,183.5c-8.6,39.4-47,60-86.8,63.2c0.7-42.5,0.3-106.9,1.1-144.3c18.4-0.7,46.1-1.1,62.1,10.8
	C424.4,128.9,432.3,158.8,427.2,183.5z"/>
</svg>
