<svg version="1.1" id="Layer_1" xmlns="http://www.w3.org/2000/svg" xmlns:xlink="http://www.w3.org/1999/xlink" x="0px" y="0px"
	 viewBox="0 0 600 600" style="enable-background:new 0 0 600 600;" xml:space="preserve">
<style type="text/css">
	.st0{fill:#FFFFFF;}
</style>
<path id="Outline" class="st0" d="M145.1,600c-10.6,0-19.3-8.7-19.3-19.3v-38.6c0-8.7,6.4-16.3,14.7-17.4c2.3-0.4,4.5-0.4,7.2-0.4
	c10.6,0,11.7-4.2,11.7-7.6v-48c-11.7-4.9-20.8-9.5-26.8-12.5c-3.8-1.9-6.8-3.4-9.5-4.9c-11.3-5.7-14.7-7.6-23.8-7.9
	c-4.5,0-10.2,0.4-17.8,1.1h-1.9c-6,0-11.7-2.3-15.5-6.4c-3-3.4-4.9-7.9-4.9-12.5s1.5-9.1,4.9-12.9c5.7-6,10.6-11.7,14.7-16.3
	c4.9-5.7,9.1-10.2,12.9-14.7l5.3-6c3.8-4.2,8.7-6.4,14.4-6.4h0.8c3.4,0,6.8,1.1,9.8,2.6c4.2,2.3,8.7,4.9,14,7.9
	c7.2,3.8,15.1,7.6,23.1,11v-59.7C100.5,318.2,58.9,268,58.9,207.8S101.2,95.3,159,81.7V71.1c0-4.9-4.2-9.1-9.1-9.1h-5.3
	c-10.6,0-19.3-8.7-19.3-19.3V19.3C125.3,8.7,134,0,144.6,0h104.7c10.6,0,19.3,8.7,19.3,19.3v23.4c0,10.6-8.7,19.3-19.3,19.3H244
	c-4.9,0-9.1,4.2-9.1,9.1v6.8c73,0.4,142.2,15.9,169,22.7c3.8,1.1,7.2,1.9,10.2,2.6c8.7,2.3,13.2,3.4,18.1,3.4
	c5.3,0,12.1-1.1,24.6-4.5c1.9-0.4,4.2-0.8,6-0.8c7.2,0,13.6,3.4,17,9.5c3.4,5.7,3,12.5-0.4,18.5c-9.1,15.9-15.9,27.2-21.6,36.3
	l-4.2,6.8c-3.4,5.7-9.8,9.5-16.3,9.5c-2.3,0-4.2-0.4-6.4-1.1c-62.4-21.9-141.4-30.2-196.2-30.6v109.3H305V248
	c-14.4,1.1-22.3,4.2-22.3,4.2l-0.4,0.4l-0.8,0.4c-2.3,0.8-4.2,1.1-6,1.1c-4.5,0-9.1-1.9-12.1-4.9c-5.7-6-5.7-14-5.7-17.8v-29.9
	c0.8-9.1,7.9-15.9,17-15.9h133.1c9.1,0,16.6,7.2,17,15.9l0.4,29.5c0,3.8,0.4,11.7-5.3,17.4c-3,3.4-7.6,4.9-12.1,4.9
	c-2.3,0-4.5-0.4-6.8-1.1c-1.5-0.4-11.3-3-23.4-4.5v11.7c88.5,6,142.5,63.5,142.5,116.1c0,80.5-68.8,130.4-179.2,130.4
	c-13.2,0-27.2-0.8-40.8-2.3c-21.6-2.3-41.6-6-65-11.7v24.2c0,7.2,3.4,7.2,11,7.2h189.4c6,0,26.8-1.5,45.7-20.4
	c3.8-3.8,8.7-5.7,13.6-5.7c5.3,0,10.6,2.3,14,6l26.8,29.1c7.2,7.6,6.8,19.3-0.8,26.8c-26.8,26.8-59.4,40.1-99.8,40.1H145.1V600z
	 M235,418.5c36.7,9.8,72.6,14.7,104.7,14.7c65.4,0,107.8-20.8,107.8-53.3c0-32.1-40.5-44.2-69.6-47.3v24.2l5.7,12.5
	c2.3,5.3,1.9,11.3-1.1,16.3c-3,4.9-8.7,7.9-14.4,7.9h-51.8c-5.7,0-11-3-14.4-7.6c-3-4.9-3.8-11-1.5-16.3l5.3-12.9v-25.3H235V418.5z
	 M159,157.3c-17.8,9.8-29.1,28-29.1,48c0,23.4,11.3,42.3,29.1,50.7V157.3z"/>
<path id="Red" d="M526.2,542.5l-26.8-29.1c-2.3-2.3-6-2.3-8.3,0c-18.9,18.9-40.8,24.6-55.2,24.6H246c-12.9,0-24.2-1.1-24.2-14.4v-48
	c28.7,7.9,52.6,12.9,79.8,15.5c106.6,11.3,205.3-21.6,205.3-114.6c0-49.5-57.1-101.3-141-102.8c-0.8,0-1.5-0.8-1.5-1.5v-35.5
	c0-0.8,0.8-1.5,1.5-1.5c21.2,0,39.3,5.7,39.3,5.7c7.6,3,6.4-6,6.4-9.1l-0.4-28c0-1.9-2.3-3-3.4-3H274.7c-1.5,0-3.4,1.1-3.4,3.4v28
	c0,3.4-0.4,11,6.4,9.1c0,0,14.4-6,39.3-5.7c0.8,0,1.5,0.8,1.5,1.5v35.5c0,0.8-0.8,1.5-1.5,1.5h-93.8c-0.8,0-1.5-0.8-1.5-1.5V138.4
	c0-0.8,0.8-1.5,1.5-1.5c49.9-0.8,140.6,6,212.5,31c2.6,0.8,5.3,0,6.8-2.3c6-10.2,14-23.1,25.7-43.1c2.6-4.9-1.5-8.7-7.6-7.2
	c-31.4,8.3-32.5,5.3-60.1-1.5c-31.4-7.9-104.7-23.4-177.7-22.3c-0.8,0-1.9-0.8-1.9-1.5V71.1c0-12.5,10.2-22.7,22.7-22.7h5.3
	c3,0,5.7-2.6,5.7-5.7V19.3c0-3-2.6-5.7-5.7-5.7h-104c-3,0-5.7,2.6-5.7,5.7v23.4c0,3,2.6,5.7,5.7,5.7h5.3c12.5,0,22.7,10.2,22.7,22.7
	v20.4c0,0.8-0.8,1.5-1.5,1.5c-56,8.7-99.1,57.1-99.1,114.9c0,58.2,43.1,103.6,98.7,111.5c0.8,0,1.5,0.8,1.5,1.5v90.7
	c-14.7-6-29.1-12.5-43.1-19.7c-4.9-2.6-9.8-5.7-14.7-8.3c-1.1-0.8-2.3-0.8-3.4-0.8c-1.9,0-3.4,0.4-4.5,1.9
	c-4.9,5.7-11,12.1-18.5,20.8c-4.5,4.9-9.1,10.2-14.7,16.3c-1.1,1.1-1.5,2.6-1.5,3.8c-0.4,3,2.6,5.7,7.2,5.3c7.6-0.8,14-0.8,19.3-1.1
	c14.7,0.8,20,4.9,38.9,14c8.3,4.2,20.4,9.5,34.4,15.5v62.8c0,18.1-22.3,14.7-31,15.5c-1.9,0.4-2.6,2.3-2.6,3.8V580
	c0,3,2.6,5.7,5.7,5.7h291.9c37.1,0,66.2-12.1,90.4-35.9C528,548.2,528.4,544.8,526.2,542.5L526.2,542.5z M221.8,320.6
	c0-0.8,0.8-1.5,1.5-1.5h94.1c0.8,0,1.5,0.8,1.5,1.5v37.1c0,1.9-0.4,3.4-1.1,5.3l-5.3,12.9c-1.1,2.3,0.8,5.3,3.4,5.3h51.8
	c2.6,0,4.5-2.6,3.4-5.3l-5.7-12.5c-0.8-1.9-1.1-3.8-1.1-5.7V321c0-0.8,0.8-1.9,1.5-1.5c34,0.4,94.9,13.6,94.9,61.2
	c0,63.5-109.6,85.8-239.3,48.8c0,0-0.4,0-0.4-0.4V320.6H221.8z M170.8,273.7c-33.3-5.3-54.1-33.6-54.1-68.4
	c0-32.1,23.1-59.4,54.1-66.9c1.1-0.4,2.3,0.4,2.3,1.5v131.9C172.7,273,171.9,273.7,170.8,273.7L170.8,273.7z"/>
</svg>
