<?xml version="1.0" encoding="utf-8"?>
<!-- Generator: Adobe Illustrator 25.2.3, SVG Export Plug-In . SVG Version: 6.00 Build 0)  -->
<svg version="1.1" id="Layer_1" xmlns="http://www.w3.org/2000/svg" xmlns:xlink="http://www.w3.org/1999/xlink" x="0px" y="0px"
	 viewBox="0 0 600 600" style="enable-background:new 0 0 600 600;" xml:space="preserve">
<style type="text/css">
	.st0{fill:#FFFFFF;}
</style>
<path id="Outline_1_" class="st0" d="M387.4,21.9h-16.7L33.8,22H17.2l-2,16.5L3.8,133.3l-1.4,11.1l-2.5,20l20.1,1.1l24.4,1.3
	l16.1,0.8l3.2-15.8l1-4.8c2.5-12.4,10.8-36.5,24.9-44.8h56v263.9c-18.2,3.4-38.3,7.1-40.6,7.4L89.1,376v16.1v28.5v18.8h18.8h188.8
	h2.5V505l-42.2,7.4h-17.1v18.7v28.5v18.8h18.8h193.1c46.1,0,82.6-11.2,108.2-33.3c13.2-11.4,23.4-25.5,30.1-42.1
	c6.5-16.1,9.9-34.5,9.9-54.8c0-32.5-10.5-59.2-31.1-79.4l-26.3-25.7c22.1-21.7,33.8-49.1,33.8-80.1c0-36.6-13.2-64.2-39.3-82.3
	c-24.3-16.8-59.4-24.9-107.4-24.9h-4.8h-21.7L389.4,38.4L387.4,21.9L387.4,21.9z M258.7,102h55.8c9.9,6.7,20.1,27.7,25.8,53.6h-81.5
	h-0.1L258.7,102L258.7,102z M258.7,366.9V221.1l40.7,6.7v146.5L258.7,366.9L258.7,366.9z M412.2,332.4V224.2
	c7.2,0.3,25.3,2.3,37.5,13.8c8.9,8.5,13.6,21.4,14,38.6c-1,21.4-10.7,36.9-29.7,47.4C426,328.4,418,331,412.2,332.4L412.2,332.4z
	 M412.2,507.4V394.3c15.2,1.7,73.3,11.1,74.9,54.4c-1.4,28.5-20.4,58.7-70,58.7H412.2L412.2,507.4z"/>
<path d="M164.5,381.6V83.4h-79c-27.7,11.4-37.4,51.8-39,59.8l-1,4.8l-24.4-1.3l1.4-11.1l11.3-94.8l337-0.2l13.9,117.5l-24.4,1.3
	l-1-4.8c-2.9-14.1-14.3-60.6-40.2-71.3h-79.2v299.2l56.9,10.3v27.6H108v-28.5C112.1,391.3,164.5,381.6,164.5,381.6z M581.2,447.9
	c0,71.8-46,111.4-129.4,111.4H258.7v-28.5l59.3-10.3V211.8l-59.3-9.7v-27.7h0.1v0H425c0,0,0,0,0,0h4.6c87.3,0,128,28.1,128,88.5
	c0,51-37.5,78.2-62.8,90.7c18,3.1,42.5,10.5,61,28.5C572.7,398.6,581.2,420.7,581.2,447.9z M405.7,374.9v-11c0,0-0.1,0-0.1,0v-11.2
	c0,0,74.3-7.6,76.9-76c0-0.4,0-0.8,0.1-1.2c-0.6-21.9-7.3-39.1-19.9-51.1c-21.7-20.5-54-19-54.7-19c0,0-9.5,0.2-14.5,0.4v320.3h23.6
	c60.2,0,87.3-38.4,88.8-77.3c-1.6-64.1-85.4-72.6-94.9-73.5L405.7,374.9z"/>
</svg>
