<?xml version="1.0" encoding="utf-8"?>
<!-- Generator: Adobe Illustrator 25.2.3, SVG Export Plug-In . SVG Version: 6.00 Build 0)  -->
<svg version="1.1" id="Layer_1" xmlns="http://www.w3.org/2000/svg" xmlns:xlink="http://www.w3.org/1999/xlink" x="0px" y="0px"
	 viewBox="0 0 600 600" style="enable-background:new 0 0 600 600;" xml:space="preserve">
<style type="text/css">
	.st0{fill:#FFFFFF;}
</style>
<path id="Outline" class="st0" d="M158.1,554.8L158.1,554.8c0.6,1.9,1.5,3.7,2.7,5.3l25.5,33.5c3.1,4,7.8,6.4,12.9,6.4h230.3
	c9,0,16.2-7.3,16.2-16.2v-77.1c0-3.9-1.4-7.6-3.9-10.6L414.5,462c-3-3.5-7.3-5.5-11.7-5.6h-13.1v-147c0-6.4,4.3-12.4,12.7-17.9
	c8-5.2,16.4-7.7,16.9-7.9c6.7-1.8,11.5-7.7,11.9-14.7s-3.8-13.4-10.2-16c0,0-8.6-3.5-17.1-9.5c-1-0.7-4.8-3.8-5.7-4.7
	c-3.8-3.5-8.4-8.8-8.4-14.4v-107c10,1.7,19.6,5.8,28.3,12.1c2.9,2.1,6.2,3.1,9.5,3.1c3.7,0,7.4-1.3,10.3-3.7
	c8.2,12.5,12.4,27.8,12.4,45.8c0,0.4,0,2.9-0.1,5.1l-0.4,16.6c0.1,3.4,1.3,6.8,3.5,9.6l28.8,32.4c3.1,3.8,7.7,6.1,12.7,6.1h53.5
	c9,0,16.2-7.3,16.2-16.2V50c0-4.2-1.6-8.1-4.5-11.2L529,6.2c-3-3.1-7-6-11.2-6.2h-16.2h-466v203l0,0c0.5,1,1.1,2,1.9,3l24.1,30.4
	c3.1,3.9,7.8,6.1,12.7,6.1h70c8.9,0,16.2-7.2,16.2-16.1l0.1-12v-0.1c0-33,1.7-56.7,10-72.8c5.5-10.5,16-23,49.1-27.1v96.3
	c0,7.4-2,18.5-19.7,29.5l-23.3,14.5l23.9,13.5c17.1,9.6,19.1,20.4,19.1,27.7V441c0,4.9-1.4,8.6-4.2,11c-3.4,2.9-9.1,4.6-16,4.6
	h-41.2v98.2H158.1z"/>
<path id="Blue" d="M115.4,195.9H50.1l24.1,30.4h70l0.1-12c0-66.6,6.3-108.7,75.9-116.3v-8.8c-75.1,0.3-104.6,25.3-104.6,90.2
	L115.4,195.9z M340.8,442.1c0,7.6,1.7,14.9,22.2,14.9h10.4V309.5c0-29.9,41.4-41.4,41.4-41.4s-10.2-4-20.5-11.4l-17.9,5.1
	c-0.4,0.1-35.7,10.4-35.7,34v146.3H340.8z M517.3,17.3v178.6h-48.5l25.9,32.4h53.5V50L517.3,17.3z M340.8,210.7
	c0,18.1,26.3,32.4,36.4,36.3l9.9,3.8c-7.5-6.9-13.7-15.8-13.7-26.4V100l5.9,0.4c17.6,0,34.3,6,48.2,16.1
	c-18.6-17.3-47.8-26.5-86.6-26.8L340.8,210.7L340.8,210.7z M173.7,550v0.3l25.5,33.5h230.3v-77.1l-27.3-31.8V550H173.7z"/>
<path id="Red" d="M51.8,180.3h48.4c0-0.5,0.1-0.8,0.1-1.2c0-1.2-0.1-1.6-0.4-0.5c0-72.7,37.3-105.1,121-105.1h14.9v137.2
	c0,22.5-15.2,35.7-27.4,43.3c12.3,6.9,27.4,19.3,27.4,41.8v145.1c0,19.6-14,31.8-36.5,31.8h-25v61.8h212.2v-61.8H363
	c-31.3,0-37.9-16.6-37.9-30.6V295.8c0-22.4,17.6-35.1,31.4-42.1c-13.6-8.1-31.4-22.1-31.4-43V81.2l5.8-7.5h7.8
	c81.1,0,127.6,36.8,127.6,101.1c0,0,0,2.9-0.1,5.5h35.3v-164H51.8V180.3z"/>
</svg>
