<?xml version="1.0" encoding="utf-8"?>
<!-- Generator: Adobe Illustrator 25.2.3, SVG Export Plug-In . SVG Version: 6.00 Build 0)  -->
<svg version="1.1" id="Layer_1" xmlns="http://www.w3.org/2000/svg" xmlns:xlink="http://www.w3.org/1999/xlink" x="0px" y="0px"
	 viewBox="0 0 600 600" style="enable-background:new 0 0 600 600;" xml:space="preserve">
<style type="text/css">
	.st0{fill-rule:evenodd;clip-rule:evenodd;fill:#FFFFFF;}
	.st1{fill-rule:evenodd;clip-rule:evenodd;}
</style>
<path id="Blue_W" class="st0" d="M336.1,223.7c21.4-50.9,63.9-63.3,63.9,0c0,68.9-34.4,150.6-64.3,201
	C307.1,368,311,283.1,336.1,223.7 M545.4,16.6C489.5-28,438.8,27.9,438.8,59.7c55.9,11.9,105.7,67.8,83.4,212.9
	C504,391.4,434,465.3,389.8,466.8c27.7-39.9,52.2-84.1,68.2-133.7c14.9-46.1,22.1-84.7,22.1-117.2c0-44.6-12.1-77.3-29-99.2
	c-8.4-10.8-17.8-19.1-27.5-24.5c-9.5-5.4-20.8-8.2-30.1-8.4c-23,0-45.5,9.3-63.3,24.3c-26.9,22.5-47.9,57.4-62.6,97.7
	c-14.7,40.3-23,86-23,130.6c0,34.7,5,68.7,16.5,98.6c6.9,18.2,16.2,35.1,28.2,49.6c-7.6,7.6-15.4,14.1-23.2,19.3
	c-16.7,11.5-33.6,17.3-50,17.3c-7.8,0-15.6-1.3-23.6-4.1c-11.3-4.1-18.8-11.5-24.5-23.8c-5.6-12.1-8.7-29-8.7-49.4
	c0-50.5,18.2-120.7,46.4-190.2c26.6-66.1,62-132.1,97.9-182.2c-7.8-0.2-18-0.4-24-0.4C184.2,71,114.9,93.1,69,125.4
	s-68.5,75-68.5,114.8c0,26,9.5,50.3,27.9,68.5c10.2,10.6,23.8,16.7,37.7,16.7c11.3,0,21.9-4.1,29.9-11.7
	c9.1-8.7,13.9-20.6,13.2-33.8c-0.4-12.6-5.8-24.7-14.9-34.2c-5.6-5.8-12.3-10.4-19.7-13.2c5-9.1,12.8-18.2,24-26.6
	c16.2-12.3,39.6-23,71.3-28.6c-19.7,34.7-36.4,69.3-49.6,102.9C96.5,340.6,83.5,398,83.5,447.7c0,33.8,6.1,64.3,19.5,89.5
	c13.4,25.1,34.4,44.8,62.6,55.7c12.8,5,26,7.4,39.2,7.4l0,0c25.8,0,51.3-8.7,75.8-23.4c19.9-11.9,39.4-27.7,57.8-46.6
	c38.8,21,128.9,29.7,197.1-92.1C617.5,292.2,620.5,77.1,545.4,16.6"/>
<path id="Red_W" class="st1" d="M503.3,13.2c-6.7-0.2-13.2,1.3-19.7,4.5c-14.3,6.9-25.1,20.6-29.5,32.5
	C488.6,61.7,541,97.4,541,207.5c0,19.9-1.7,42.2-5.4,67.4c-17.3,112-79.7,188-129.5,202.8c-13.9,4.1-26.4,3.2-37-1.9
	c31.6-42.7,58.5-93.8,77.1-146.7C503.5,161.1,431.2,97,395,97c-118.5-4.1-190.8,284.4-87.7,388.2c-35.3,38.3-76.5,59.6-118.9,44.4
	c-96-34.4-9.7-292.9,91.2-445.4C31.7,84.2-27,236.3,37.8,299.8c14.3,14.9,36.6,17.1,49.6,4.8c13.2-12.3,12.1-34.7-2.2-49.8
	C77.2,246.4,67,242,57,242c10.4-36.2,53.3-73.7,137.3-80.8C80.8,347.9,57.2,536.8,170.3,581c53.5,20.8,114.4-10.2,167.5-67.4
	c14.9,8.2,35.7,15.8,53.5,15.6c35.5-0.4,87.3-16.9,132.6-97.5c37.7-67.4,60.4-153.6,62-236.6c1.7-79.3-16.7-142.1-49-167.9
	C525.6,17.9,514.4,13.4,503.3,13.2L503.3,13.2L503.3,13.2z M379.4,168.3c63.7,0,29.5,172.4-43.8,280.5
	C272,363.4,309.7,168.3,379.4,168.3z"/>
</svg>
