<?xml version="1.0" encoding="utf-8"?>
<!-- Generator: Adobe Illustrator 25.2.3, SVG Export Plug-In . SVG Version: 6.00 Build 0)  -->
<svg version="1.1" id="Layer_1" xmlns="http://www.w3.org/2000/svg" xmlns:xlink="http://www.w3.org/1999/xlink" x="0px" y="0px"
	 viewBox="0 0 600 600" style="enable-background:new 0 0 600 600;" xml:space="preserve">
<style type="text/css">
	.st0{fill:#FFFFFF;}
	.st1{fill:#AAAAAA;}
	.st2{fill:#555555;}
</style>
<polygon id="Blue_Outline" class="st0" points="185.8,367.5 0,233 229.5,233 300,15.9 370.5,233 600,233 414.2,367.5 484.5,584.1 
	300,450.3 115.4,584.1 "/>
<polygon id="Star_Light" class="st1" points="300,47.7 363.4,242.8 569.7,242.8 402.6,363.8 465.8,558.4 300,438.2 134,558.4 
	197.4,363.8 30.3,242.8 236.6,242.8 "/>
<path id="Star_Dark" class="st2" d="M300,47.7L300,47.7L300,47.7L300,47.7z M569.7,242.8h-1.4l-44.5,14.3H367.5l-4.3-14.3l0,0
	L300,47.9V330l-47.9,65.9L184,335.7L76,257.2l-45.9-14.3L248.5,401L134,558.4l166-120.3l165.8,120.3l-63.2-194.7L569.7,242.8z"/>
<polygon id="H_Outline" points="310.1,496.8 310.1,433.8 346.6,420.7 346.6,381.1 253.2,381.1 253.2,420.7 289.8,433.8 289.8,496.8 
	137.6,496.8 137.6,433.8 174.2,420.7 174.2,262.7 137.6,249.4 137.6,186.4 289.8,186.4 289.8,249.4 253.2,262.5 253.2,302.1 
	346.6,302.1 346.6,262.5 310.1,249.4 310.1,186.4 462.2,186.4 462.2,249.4 425.7,262.5 425.7,420.7 462.2,433.8 462.2,496.8 "/>
<path id="H_White" class="st0" d="M184,255.8L184,255.8v171.8l-36.6,13.1V487l0,0l0,0l0,0l0,0H280v-35v-11.3l0,0l0,0l0,0l0,0
	l-36.6-13.1v-56.3h113v56.3l-36.6,13.1V487l0,0l0,0l0,0l0,0h132.6v-46.3l0,0l0,0l0,0l0,0l-36.6-13.1v-172l36.6-13.1v-46.3l0,0l0,0
	l0,0l0,0H319.9v46.3l0,0l0,0l0,0l0,0l36.6,13.1v56.3h-113l0,0v-56.3l36.6-13.1v-46.3l0,0l0,0l0,0l0,0H147.4l0,0v46.3L184,255.8z"/>
<path id="H_Shadow" class="st1" d="M368.4,359.7l-11.8,11.8h-113v56.1l0,0l-11.8,8.4v-76.3H368.4z M440.8,208.2v26.2l-36.6,13.1
	v188.5l11.8-8.2V255.9l36.6-13.1v-46.3l0,0l0,0l0,0l0,0L440.8,208.2z M320,242.8L320,242.8l36.6,13.1l11.8-8.4l-36.6-13.1L320,242.8
	L320,242.8L320,242.8z M195.8,247.6l-36.6-13.1l-11.7,8.4l0,0l36.6,13.1l0,0l0,0L195.8,247.6z M268.2,208.2v26.2l-36.6,13.1v76.5
	l11.8-11.8l0,0l0,0l0,0v-56.3l36.6-13.1v-46.3l0,0l0,0l0,0l0,0L268.2,208.2z M320,487.2L320,487.2h132.6v-46.3l0,0l0,0l0,0l0,0
	l-11.8,8.2v26.3H331.8L320,487.2L320,487.2L320,487.2L320,487.2L320,487.2z M147.4,487.2L147.4,487.2L147.4,487.2H280v-35v-11.3l0,0
	l0,0l0,0l0,0l0,0l0,0l-11.8,8.2v26.3H159.1L147.4,487.2L147.4,487.2L147.4,487.2z"/>
</svg>
