<svg version="1.1" id="Layer_1" xmlns="http://www.w3.org/2000/svg" xmlns:xlink="http://www.w3.org/1999/xlink" x="0px" y="0px"
	 viewBox="0 0 600 600" style="enable-background:new 0 0 600 600;" xml:space="preserve">
<style type="text/css">
	.st0{fill:#FFFFFF;}
</style>
<path id="Outline" class="st0" d="M466.5,578.2c-43.6,0-84.4-16.9-115-47.7c-39.5-29.2-67.5-87.3-94.7-143.6
	c-29.3-60.8-59.7-123.6-93.8-123.6c-6.5,0-13.6,2.2-21.3,6.6c-0.4,27.4-0.1,75.3,0.1,92.5c0,9.8,2.2,16.9,6.5,21.2
	c6,6,16.1,7.3,23.6,7.3c1,0,2,0,3-0.1l20.6-0.9v59.4H0.2V390l20.6,0.8c1.1,0,2.1,0.1,3.2,0.1c24.6,0,29.8-10.9,30-28.5
	c0-5.6,0-188.9,0-240.2l-0.6-0.2l0.6-13.8c0.3-7.9-1.8-14.4-6.4-19.1c-5.2-5.4-13.4-8.5-22.4-8.5c-1.2,0-2.4,0.1-3.6,0.2L0,82.6
	V22.2h170.1v-0.4h166.6v57.9l-19.1,0.6c-2.6,0.1-5.1,0.1-7.5,0.1h-2.6c-13.4,0-20.1,0-37.9,21c-18.8,23.3-50.2,68.9-69.4,97.2
	c42.4,15.7,72.7,59.1,95.1,95.6c7.2-34.5,23.1-67.8,46.2-94.3c30.2-34.7,69.7-53.7,111.4-53.7c1.5,0,3.1,0,4.7,0.1
	c2.5-0.2,5.1-0.3,7.7-0.3c14.4,0,27.8,3.3,39.7,6.2c8,2,15.6,3.8,20.6,3.8c0.7,0,1.2,0,1.6-0.1c0.5-0.9,1.5-3.2,2.2-8.2l2.4-17H591
	v183h-58.9v-19.8c0-20.2-10.4-52.3-29.9-71.8c-11.8-11.8-25.5-17.8-40.7-17.8c-0.8,0-1.6,0-2.4,0h-0.3
	c-35.4,0.9-59.5,23.8-71.6,68.1c-23.4,85.6,9.2,207.9,40.7,227.6l1.2,0.8l1.1,0.9c13.8,11.7,30,17.9,46.7,17.9
	c24,0,45.6-12.6,54.8-31.8c-12.9-9.7-18.9-24.4-15.5-39.4c4.2-18.2,20.7-31.5,39.4-31.5c9.1,0,26.2,3.3,39.2,25.1l1.5,2.5l0.7,2.9
	c7,28.7,0.8,57.3-17.5,80.7C555.5,559,512.1,578.2,466.5,578.2L466.5,578.2z M164.5,81.1c-15.9,1.2-23.3,10.2-23.3,28.1v59.4
	c23.8-34.2,49.7-72.5,58-88.1c-1.1-0.1-2.4-0.1-3.8-0.1c-1.4,0-3,0-4.6,0.1L170,81.6v-1L164.5,81.1z M202.1,74.4L202.1,74.4z"/>
<path id="Blue" d="M578,452.2c-23.1-38.9-64.4,5.9-28.8,23.1c6.6,3.5,5.3,9.1,2.6,16.6c-18.2,45.8-84.8,66.8-134.2,24.9
	c-64.5-40.3-103.4-328.5,40.9-332.2c63-2.5,93.5,69.6,93.5,109.3c4.6,0,14.9,0,19.4,0V150.5h-22.5c-6.8,48.7-49.5,11.2-90.7,15.6
	c-94.7-4.1-157.9,103.8-145.8,191.3c-26.5-29.2-68.6-144.3-145-145c0,0,57.9-87.3,87.1-123.5c27.5-32.4,40.6-27.5,62.6-28.3
	c0-3.6,0-15.2,0-19H189.9v19.2c20.5-1.1,41.1,3.1,27.7,27.5c-11.9,23.1-62.4,95.5-86.2,128.6l-9.9,5.7V109.2
	c0-33.8,20.9-46.2,41.5-47.8c0-3.9,0-15.3,0-19.4c-34.4,0-108.4,0-143.3,0v19c28.7-2.6,55.4,15.3,53.9,48v253.5
	c-0.5,40.5-28,49.1-53.7,48v19c41.5,0,114,0,155.7,0c0-3.9,0-14.9,0-19c-29.2,1.3-53.8-11.4-53.7-48c-0.2-23.7-0.6-80.4,0.2-103.5
	c114.6-82.5,148.7,189.4,242.3,256.5C449.7,602.8,600.6,544.4,578,452.2z"/>
</svg>
