<svg version="1.1" id="Layer_1" xmlns="http://www.w3.org/2000/svg" xmlns:xlink="http://www.w3.org/1999/xlink" x="0px" y="0px"
	 viewBox="0 0 600 600" style="enable-background:new 0 0 600 600;" xml:space="preserve">
<style type="text/css">
	.st0{fill:#AAAAAA;}
	.st1{fill:#555555;}
	.st2{fill:#FFFFFF;}
</style>
<path id="Black" d="M112.1,384.2c3.4-10.8,6.8-22,10.2-32.9l0,0c-12.2-92.4,111.3-138.9,168.5-138.4l22.4-21.8l70.6-7.5
	c0,0-10.1-8.2-40.2-6.3l-39.1,2.4c0,0-0.5-18.8,19.5-26.4c20-7.6,111-40.9,111-40.9h-0.1h-0.2l-89.3,16.1l-20.6,3.7
	c-15.5-0.6-28.1,1.4-28.1,1.4c-8.5-4.2-16.6-6.5-23.3-7.7c-1.8-0.4-3.6-0.8-5.4-1.1c-10.5-22.4-31.2-60.6-63.9-96.2
	c-8.9,26.4,3.7,44-13.7,80.4c-2,4.1-3.7,7.8-7.7,12.1c-15.2,16.7-23.6,18.7-39.1,29.2c-24.9,15.6-42.9,35.1-54.7,56.7
	c9.8-2.3,15.8-3.7,25.7-5.3c3.8-5.2,8.1-10.2,12.7-14.8c3.8-3.6,7.8-7.1,12-10.2c26.3-19.9,63-30.5,102.6-31.8l2.7-0.1
	c-46.5,5.9-88.2,23.9-116,54.7l0,0c33.5-4.3,61.7-3.4,78.5-1c-12.1,4.5-24.5,10.2-35.7,16.7l-2.5,1.5c-1.6,1-3.3,2-4.9,3
	c-3.9,2.5-7.8,5.2-11.5,8l-0.2,0.1l-1.3,1c-13.7-1.3-27.4-2-41.2-2.2c-12.1,23.2-18,51.3-15.5,84.8c-2.4-9.3-3.8-18.8-4.2-28.4l0,0
	c-0.9-19.4,2.6-38.7,10.3-56.5c-6.9,0-13.7,0.2-20.6,0.5C60.6,280.4,74.3,341.3,112.1,384.2L112.1,384.2z M303.6,159.7
	c0,0-7.1,4.1-9,20.6l-17.1,1C277.5,181.3,281.1,167.2,303.6,159.7z M194.7,131.2c9.8-13.1,21-36.2,18.8-68c0-0.4,0-1.5-0.1-2.6
	c13.7,18.7,25.8,38.4,36.4,59C230.8,119.7,212.1,123.7,194.7,131.2z M569.5,152.1c-24,22.2-41.7,52.4-54,91.6L440,487
	c-2.4,8.2-4,14.4-4.8,20.5c-1.2,8.8-1.2,16.4,0.1,23.1h-69.4L448.3,264L278.2,492.9l-19.5-92.4c0.2-0.2,0.3-0.4,0.5-0.6l5.6-6.4
	l0.6-0.7c1.6-1.9,3.2-3.7,4.8-5.5l1-1.1c2.9-3.3,5.9-6.5,9-9.6l0.5-0.5l0,0c5.6-5.5,10.7-9.5,15.1-11c-0.3-0.1-0.7-0.1-1-0.1
	c-2.4-0.1-8.8,0.8-20,9.6c-0.7,0.6-1.4,1.2-2.1,1.8c-0.3,0.2-0.6,0.5-0.8,0.8c-0.4,0.4-0.9,0.8-1.3,1.2c-0.4,0.3-0.7,0.7-1.1,1
	s-0.7,0.7-1.1,1.1s-0.9,0.8-1.3,1.3c-0.3,0.3-0.6,0.6-1,0.9c-0.5,0.5-1,1-1.6,1.6c-0.2,0.2-0.5,0.5-0.7,0.7
	c-2.2,2.2-4.5,4.6-6.9,7.3l0,0c-1.2,1.3-2.4,2.7-3.7,4.1c-9.7,11-14.3,18.6-17.6,22.9c-2.5,3.2-3.3,5-3.8,8c-0.1,0.6-0.3,9.3-2,13.8
	c-1.3,3.4-6.4,10.8-6.7,11.3c-2.4,4-2.1,6-2.1,8.2c0.1,2.2-0.4,31.8,0.5,64.6c0.8,32.9,12.1,54,12.1,54c-0.3-0.1-0.6-0.1-0.9-0.3
	c-4.3-1.5-22.1-10.7-29.4-59.6c-1.1-7.3-2.1-14.6-2.9-21.9l-0.3-2.6c-1.6-15-1.8-22.5-2.6-29.3c-0.5-3.9-1.3-12.5-6.6-22.2
	l10.5-34.4c6-1.4,11.8-5.1,18.7-11.4c7-6.4,9.6-8.1,18.7-16c4.9-4.2,9.4-7.7,13.6-10.5l-21-99.5l-58.6,191.8
	c-3.1,10.5-12.4,42.6-32.4,64.8c-6.1,6.8-23.5,26.1-72.2,32.7c9.1-10.2,20.7-26.6,28.8-50.3c3.9-11.5,45-144.4,70.3-226.2
	c-6.1,4.7-11.8,10-17,15.7c-2.6,3-5.1,6-7.3,9.3c-6.3,9.2-13.3,19.1-17,29.8l3.3-10.5c0.8-2.4,1.5-4.7,2.2-6.8c2-7,4.6-13.8,8-20.1
	c15.3-29.6,46.5-48.7,69.1-59.2c22.2-10.3,47.2-17.3,68.3-19.5l30.8,146.9l7.7-10.1c3.6-4.7,9.7-13,17.6-23.6
	c19.5-26.6,39.3-53,59.4-79.3c36.5-43.5,59.6-64.7,88.1-81.1C513.3,157.1,546.5,152.5,569.5,152.1z"/>
<path id="Red" class="st0" d="M90.1,283.1c0.4,9.7,1.9,19.2,4.2,28.4c-2.6-33.5,3.4-61.6,15.5-84.8c-3.1-0.1-6.3-0.1-9.4-0.1
	C92.7,244.5,89.2,263.8,90.1,283.1 M244.7,144.9L242,145c-39.6,1.2-76.3,11.9-102.6,31.8c-4.2,3.2-8.2,6.6-12,10.2
	c-4.6,4.6-8.8,9.5-12.7,14.8c4.7-0.8,9.4-1.5,14-2.1C156.5,168.7,198.2,150.8,244.7,144.9 M417.2,325.4l-19.5,26.3l-63.5,202.2
	l105.5-0.1l11.5-11.5H350.1L417.2,325.4z M323.6,328.9c16.3-22.1,38.7-52.4,59.6-79.6l0.2-0.2c37.6-44.7,61.5-66.7,91.4-83.8
	c9.5-5.3,19.5-9.8,29.8-13.3c-14.5,4-29.8,9.8-45.1,18.4c-3.1,1.8-6.1,3.6-9.1,5.5c-27.9,16.5-51.8,34.9-87.7,80.8l-51.9,70.5
	l3.1,15L323.6,328.9 M277,514l0.7-0.9l0.6-0.7l0.4-0.6L277,514L277,514z M250.1,427.7c-1.6,2.4-2,3.6-2.2,4.9v0.5
	c-0.3,4.8-1,10.8-2.6,15c-0.1,0.2-0.1,0.3-0.2,0.5l17.6,84.5l9.4-12.5L252,425C251.2,426,250.6,427,250.1,427.7 M118.4,558.6
	c-27.5,12.9-56.2,14.5-68.7,15.4c-5,0.3-10.1,0.5-15.1,0.6c18.8-14.7,33.7-29,43.6-49.4c2.9-5.5,5.6-11.7,8-18.7
	c3.6-10.3,39-124.9,64.2-206.7c-2.6,3-5.1,6-7.3,9.3c-6.3,9.2-13.2,19.1-16.9,29.8c-0.3,0.7-0.5,1.5-0.7,2.2
	c-1,3.4-2.1,6.8-3.2,10.2c-3.4,10.9-6.8,22-10.2,32.9l-1.6,5.3l-0.1-0.1c-18.5,59.7-33.8,108.5-35.9,115
	C62,542.4,34.6,560.6,0,586.7c12.4,0.2,25.7,0.5,38.4-0.5c17.7-1.4,67.8-4.5,101.1-38.9c1.3-1.3,2.5-2.6,3.8-3.9
	c3.5-3.9,6.6-8,9.5-12.2c-1.2,1.5-2.4,3.1-3.7,4.6C140.4,545.2,130,553,118.4,558.6 M230.7,379.1c3.1-2.5,6.4-5.1,10-7.8l-11.3-53.5
	l-6.8,22.3L230.7,379.1z"/>
<path id="Dark_Blue" class="st1" d="M277.5,181.3l17.1-1c1.9-16.5,9-20.6,9-20.6C281.1,167.2,277.5,181.3,277.5,181.3 M100.4,226.7
	c16.9-0.1,33.8,0.7,50.6,2.3l1.3-1l0.2-0.1c3.7-2.8,7.6-5.5,11.5-8c1.6-1,3.3-2,4.9-3l2.5-1.5c-42.6-1.9-99.9,0.3-154.6,18
	c1.4-0.3,22-4,53.2-5.8C80.2,227,90.3,226.7,100.4,226.7 M434.8,112.4l-89.2,16.1l89.5-16.1c0,0-91,33.3-111,40.9
	s-19.5,26.4-19.5,26.4l39.1-2.4c30.1-1.9,40.2,6.3,40.2,6.3l-70.6,7.5l-22.4,21.8c-57.2-0.5-180.8,46-168.5,138.4l3.1-10.2l0.7-2.2
	l0.2-0.7l3-9.9c0.8-2.4,1.5-4.7,2.2-6.8c2-7,4.6-13.8,8-20.1c15.3-29.6,46.5-48.7,69.1-59.2c22.2-10.3,47.2-17.3,68.3-19.5
	c4-0.4,8-0.7,11.7-0.8l1.4-0.1h4.5l24.2-23.6l85.3-9.2c-3.2-3.5-19.4-19.2-51.2-19.9c-3.3,0-6.5,0.1-9.8,0.3l-26.6,1.6
	c1.8-5,5.7-9,10.8-10.9c19.7-7.5,125.1-46.2,126-46.6l8.4-8.3L434.8,112.4z M240.4,425.6c0.4-0.8,0.8-1.5,1.3-2.3l1.2-1.8l3.7-5.3
	l2.7-3.8c3.1-4.3,6.4-8.5,9.9-12.6l5.6-6.4l0.6-0.7c1.6-1.9,3.2-3.7,4.8-5.5l1-1.1c2.9-3.3,5.9-6.5,9-9.6l0.5-0.5l0,0
	c5.6-5.5,10.7-9.5,15.1-11c-0.3-0.1-0.7-0.1-1-0.1c-2.4-0.1-8.8,0.8-20,9.6c-5.8,5-13,12-21.6,21.7c-9.7,11-14.3,18.6-17.6,22.9
	c-2.5,3.2-3.3,5-3.8,8c-0.1,0.6-0.3,9.3-2,13.8c-1.3,3.4-6.4,10.8-6.7,11.3c-2.4,4-2.1,6-2.1,8.2c0.1,2.2-0.4,31.8,0.5,64.6
	c0.8,32.9,12.1,54,12.1,54l0,0c6.1,6,11.9,8.4,11.9,8.4c-5.9-10.3-15.7-39.8-16.3-62.5c-0.6-23.7-0.1-44.4-0.3-56.5
	c0-2.7-0.1-5.3-0.2-8v-0.7c0-1.1,0-1.4,1.1-3.6c0.1-0.2,0.2-0.4,0.4-0.6c2.8-4.3,5.6-8.7,6.8-11.8c1.6-4.2,2.1-10.2,2.4-15v-0.5
	C239.7,427.3,240,426.5,240.4,425.6L240.4,425.6z"/>
<path id="Light_Blue" class="st2" d="M171.5,215.3l0.6-0.3c11.2-6.4,23-11.9,35.1-16.3c-16.8-2.4-45-3.4-78.5,1
	c-13.4,1.8-26.6,4.2-39.7,7.3c11.9-21.6,29.9-41.1,54.7-56.7c15.5-10.5,24-12.5,39.1-29.2c3.9-4.3,5.7-8,7.7-12.1
	c17.4-36.3,4.8-54,13.7-80.4c32.8,35.6,53.4,73.8,63.9,96.2c1.8,0.3,3.6,0.7,5.4,1.1c6.7,1.2,14.8,3.5,23.3,7.7c0,0,12.5-2,28.1-1.4
	l20.6-3.7l89.3-16.1l27-6.9l8.9-8.5l-146.4,26.2c-8.7-0.3-17.3,0.1-25.9,1.1c-7.1-3.2-14.5-5.6-22.1-7.1c-0.6-0.1-1.2-0.3-1.8-0.5
	c-11.2-23.1-31.3-59-63.2-93.6c-3.7-3.8-7.6-7.4-11.7-10.7c-1.9,4-4.5,13.8-4.5,13.8c-2.9,9.6-3.8,23.7-3.9,37.6
	c0.2,9.7-0.9,25.7-7.8,39.6c-0.5,0.9-1,1.8-1.6,2.7c-0.6,1-1.2,2.1-1.9,3.2c-1.1,1.6-2.4,3.2-3.7,4.7c-0.5,0.6-0.9,1.2-1.4,1.7
	c-5.2,5.8-12,11.4-20.7,17.2l-1.8,1.2c-6.3,3.8-17.7,10.2-26.4,16.8c-23,16.5-37.4,35.1-48.9,59c-19.8,5.5-40.2,13.1-60.3,23.3h0.1
	C71.5,215.6,128.8,213.4,171.5,215.3 M112.1,384.2c-37.8-42.9-51.5-103.9-32.3-157.1c-3.3,0.1-6.5,0.3-9.8,0.5
	c-5.8,17.5-8.4,35.9-7.9,54.4c0,0.2-0.1,0.3-0.1,0.5v0.5c0,0.3,0,0.5,0,0.8l0.3,2.3c2.7,42.7,24.5,79.8,48,103.5l0.1,0.1
	L112.1,384.2 M213.4,60.5c0,1.1,0,2.2,0.1,2.6c2.2,31.8-9,54.9-18.8,68c17.4-7.5,36.1-11.5,55.1-11.7
	C239.2,98.9,227,79.2,213.4,60.5 M233.8,579.2c-0.3-0.1-0.6-0.2-0.9-0.3c-4.3-1.5-22.1-10.7-29.4-59.6c-1.1-7.3-2.1-14.6-2.9-21.9
	l-0.3-2.6c-1.6-15-1.8-22.5-2.6-29.3c-0.5-3.9-1.4-12.2-6.7-21.9c0-0.1,0.1-0.2,0.1-0.3l0,0l31.5-103.2l6.8-22.3l11.3,53.5
	c-3.6,2.6-6.9,5.3-10,7.8c-7.1,5.8-12.7,10.9-15.4,13c-4.5,3.6-7.6,5.7-10.7,6.8l-3,10c6-1.4,11.8-5.1,18.7-11.4
	c7-6.4,9.6-8.1,18.7-16c4.9-4.2,9.4-7.7,13.6-10.5l-21-99.5L173,463.3c-3.1,10.5-12.4,42.6-32.4,64.8c-6.1,6.8-23.5,26.1-72.2,32.7
	c9.1-10.2,20.7-26.6,28.8-50.3c3.9-11.5,45-144.4,70.3-226.2c-6.1,4.7-11.8,10-17,15.7c-25.3,81.8-60.7,196.3-64.2,206.7
	c-2.4,6.9-5.1,13.1-8,18.6c-9.9,20.3-24.8,34.7-43.6,49.4c5,0,10-0.2,15.1-0.6c12.5-0.9,41.2-2.5,68.7-15.4
	c11.6-5.6,22-13.4,30.7-22.9c1.3-1.5,2.5-3,3.7-4.6c19.1-23.7,28.1-54.3,31.2-64.7l0.7-2.2l2.6-8.6c1.1,3.3,1.8,6.9,2.2,10.9
	c0,0,2.2,20.2,5.3,48.4c7.6,68.5,38.4,69.8,50.9,72.6C245.7,587.5,239.9,585.1,233.8,579.2 M572.9,140.4c-17.8,0-42.3,2.4-68.4,11.6
	c-9.8,3.4-19.7,7.7-29.8,13.3c-29.9,17.1-53.8,39.1-91.4,83.8l-0.2,0.2c-20.1,26.3-40,52.9-59.6,79.6l-9.8,13.2l-3.1-15l-22-105.1
	c-3.9,0.1-7.8,0.3-11.7,0.8l30.8,146.8l7.7-10.1c3.6-4.7,9.7-13,17.6-23.6c19.5-26.6,39.3-53,59.4-79.3
	c36.5-43.5,59.6-64.7,88.1-81.1c32.9-18.4,66-23,89.1-23.4c-24,22.2-41.7,52.4-54,91.6L440,487c-2.4,8.2-4,14.4-4.8,20.5
	c-1.2,8.8-1.2,16.4,0.1,23.1h-69.4L448.3,264L278.2,492.9l-17-80.7c-3.6,4.8-6.9,9.5-9.2,12.8l20.1,95.5l125.5-168.9l19.5-26.2
	L350,542.3h101.1c-2.1-5.3-2.3-6.2-2.9-7.8c-2.5-6.8-3-14.8-1.7-25.3c0.7-5.4,2.2-11.2,4.4-18.7l75.5-243.2
	c13.4-43.1,33.6-74.4,61.7-95.8c3.8-3,7.9-6,11.7-8.8C600,142.6,586.2,140.6,572.9,140.4"/>
</svg>
