<svg version="1.1" id="Layer_1" xmlns="http://www.w3.org/2000/svg" xmlns:xlink="http://www.w3.org/1999/xlink" x="0px" y="0px"
	 viewBox="0 0 600 600" style="enable-background:new 0 0 600 600;" xml:space="preserve">
<style type="text/css">
	.st0{fill:#FFFFFF;}
	.st1{fill:#555555;}
</style>
<path id="Outline" class="st0" d="M325,0C240.8,0,160.5,12.1,98.8,33.9l-6.5,2.3l-1,6.8l-15.2,95.4l-4.1,26l21.9-14.6
	c55.6-37,116.5-58.5,181.2-63.8c0.2,12.3,0.2,26.4,0.2,43.2c0,3.5,0,7,0,10.6c-34,4.6-64.6,14.1-93.2,28.9
	c-29.5,15.2-57.8,36.5-86.4,65.2C87,242.4,78,252,68.5,262.2c-15,16-32.1,34.2-50.6,51.6l-9,8.5l9.1,8.4
	c18.6,17.3,35.8,35.7,51,51.9c9.4,10.1,18.3,19.6,26.7,28c28.5,28.5,56.7,49.7,86.2,65c28.4,14.7,58.7,24.2,92.3,29
	c-2.3,23.8-8.3,49-18.9,80.2L250,600h16.1h118.3h16.1l-5.2-15.3c-10.6-31.1-16.6-56.1-18.9-79.5c51.2-6.2,97.3-22.4,134-47.2
	c38.5-26,64.9-59.9,76.2-98.2L591,345l-15.4-0.1l-84.3-0.4h-6.7l-3.3,5.8c-18.9,32.8-57.1,56.3-106.1,65.5V226.5
	c49.5,9.3,87.6,33.1,105.5,66.3l3.3,6.1h6.9l84.3-0.4l15.4-0.1l-4.4-14.8c-11.5-38.4-38-72.4-76.5-98.3
	c-36.8-24.8-83.1-40.9-134.6-47v-10c0-12.3,0.1-23.2,0.2-32.8c0-3.5,0.1-7,0.1-10.4c64.7,5.4,125.5,26.8,181.1,63.8l22,14.6
	l-4.2-26.1L559.4,43l-1.1-6.8l-6.5-2.3C490.2,12.1,409.6,0,325,0L325,0z M275.8,415.8c-30.5-5.9-56.3-16.8-75.3-32
	c-22.3-17.7-34.5-39.7-34.5-62c0-22.5,12.2-44.5,34.4-61.9c19.7-15.5,45.5-26.5,75.3-32.1c0,19.5,0,39.2,0.1,58.3
	C275.9,329.2,275.9,373.5,275.8,415.8L275.8,415.8z"/>
<path class="st1" d="M375.1,150c105.9,12.8,179.5,68.2,200.2,137.1l-84.3,0.4c-19-35.5-59.9-62.7-115.9-72.7V150z M275.8,427.6
	c-34.4-6.3-62.4-18.8-82.5-34.8c-23.7-18.9-38.8-43.6-38.8-71c0-27.4,14.8-52.1,38.8-71c20.2-15.9,48.1-28.5,82.1-34.7l-0.1-64.8
	c-68.9,9.7-120.9,39.9-171.6,90.6c-22.2,22.2-47.7,51.8-78,80.3c30.3,28.1,55.8,58.1,78,80.3c50.7,50.7,102.9,80.8,172.2,90.7
	L275.8,427.6z M491.4,356.2c-19.8,34.3-60.3,61.5-116.3,71.5v66c106.1-12.9,180.3-68.4,200.7-137.2L491.4,356.2z"/>
<path id="T" d="M287.2,213.5c0,72.1,0.4,146.4,0,216l-0.7,64c-1.5,31.8-9.2,62.5-20.3,95h118.3c-11.1-32.5-18.9-62.9-20.3-94.7
	l-0.4-64.3v-301c0-22.6,0.4-39.9,0.4-55.5c71.7,3.7,139.1,26.6,199,66.6L548,44.8c-62.5-22.2-142.8-33.3-223-33.3
	c-79.5,0-159.8,11.1-222.3,33.3l-15.2,95.4c59.9-39.9,127.6-62.9,199-66.6c0.4,15.2,0.4,32.9,0.4,55.5c0,27.4,0,55.1,0.4,83.6
	L287.2,213.5"/>
</svg>
