<svg version="1.1" id="Layer_1" xmlns="http://www.w3.org/2000/svg" xmlns:xlink="http://www.w3.org/1999/xlink" x="0px" y="0px"
	 viewBox="0 0 600 600" style="enable-background:new 0 0 600 600;" xml:space="preserve">
<style type="text/css">
	.st0{fill:#FFFFFF;}
	.st1{fill:#555555;}
	.st2{fill:#AAAAAA;}
</style>
<path id="S_Blue" d="M135.9,371c54.8,4.5,57.9,37,77.8,71.4c17.3,29.9,41,57.9,74.3,57.9c37,0,41.4-37,41.4-50.8
	c0-21.5-10.9-38.9-27.4-54.3c-2.6-2.4-7.1-8.5-9.9-10.8c-11.1-9.2-24-17.8-37.5-26.3c-3.7-2.3-5.7-1.1-9.4-3.4
	c-53.3-33.6-111-71.5-111-174.4C134.3,57.2,225.8,0,288.9,0c46,0,79.2,27.5,79.2,27.5l62.7-22.7V213c-41.5,0-67.3-41.4-76.4-58.9
	c-5.2-9.9-17.8-57.2-53.9-57.2c-23.3,0-29.2,24.3-29.2,38.6c0,19.9,13.3,38.2,33.6,52.8c12.7,9.1,28.7,19,44.2,28.5
	c7.4,4.6,25.2,12.5,27.7,14.3c33.7,23.8,88,67.7,88,164.4c0,130.1-92.2,201.4-173,201.4c-37.9,0-84.3-22.7-84.3-22.7L135.9,600V371
	L135.9,371z"/>
<path id="S_Gray" class="st0" d="M247.3,270.4l-38.4-84.6l72.8,44l3.2-20.2c-23.9-17.8-41-39.4-41-74.1c0-41.4,25.4-67.9,53.6-67.9
	c66,0,74.9,80.3,104.7,104.4V45c-18.7,6.7-33.5,15.9-36.9,15.9c-6,0-33-33.6-75.9-33.6c-52.5,0-127.1,53.1-127.1,150
	c0,45.4,12.7,77.4,31.5,102C193.8,279.3,247.3,270.4,247.3,270.4z M363.3,258.4l-4.9,11.5l25.3,4.1
	C377.2,268.4,370.3,263.3,363.3,258.4L363.3,258.4z M226.2,311.4c5.6,4.4,11.4,8.5,17.2,12.5l4.1-9L226.2,311.4z M357.9,315.5
	l0.1,2.3l36.8,81.8l-71.4-44.3l-3.1,18.9c21.6,17.8,36.6,39.3,36.6,71.9c0,48.4-27,83-64.1,83c-88.3,0-105.5-90-128.4-112.2
	l0.1,141.5c29.6-8.9,37.9-18.3,43.8-18.3c10.5,0,33.3,28.3,82.9,28.3c70.9,0,145.3-68.6,145.3-171.8c0-39-9.5-67.8-24.2-90.2
	L357.9,315.5L357.9,315.5z"/>
<path id="S_Green" class="st1" d="M347.3,215.5c-9.9-6.1-19.9-12.3-29.1-18.3l3.5,21.4c3.5,2.2,7.1,4.4,10.5,6.5L347.3,215.5z
	 M232.9,346.7l6.8-14.8c-11-7.1-22.2-14.8-32.7-23.7l-28.4-4.6C194.8,320.9,213.9,334.4,232.9,346.7z M281.8,356.5
	c-0.6-0.4-1.2-0.8-1.8-1.2l-15,9.4c7.1,4.7,13.9,9.4,20.3,14.3L281.8,356.5z M427,303.8c15,26,21.8,56.8,21.8,91.6
	c0,70.4-28.1,114-51.6,138.2c-29.1,29.9-67.4,47-105.3,47c-42.9,0-82.1-25.6-82.1-25.6L152,577V396.4c19.4,3.4,28.5,17.1,36.6,33.6
	c3.2,6.6,7,13.2,11.2,20.4c25.6,44.4,54.5,66,88.3,66c42.5,0,57.5-36.1,57.5-67c0-22.1-9.1-42.2-27.6-61.3l-3.4,20.5
	c9.3,12,14.9,25.3,14.9,40.7c0,13.8-4.4,50.8-41.4,50.8c-33.4,0-57.1-28-74.3-57.9c-19.9-34.4-23-66.9-77.8-71.4v229l71.7-25.9
	c0,0,46.4,22.7,84.3,22.7c80.8,0,173-71.3,173-201.4c0-39.5-9.1-70.2-22.1-94.3L427,303.8L427,303.8z M376.9,231
	c-0.3-0.2-0.8-0.5-1.5-0.9l-6.4,15c12.3,8.7,26.3,19.2,39,32.9l22.7,3.7C413.4,258,392.9,242.2,376.9,231z M181,281.4
	c-20.5-26.8-30.6-60-30.6-101.3c0-64.1,30.6-105.9,52.8-127.3c25.2-24.3,55.5-36.7,85.7-36.7c44.6,0,77.6,30.8,77.6,30.8l48.2-19.2
	V192c-32.9-10.1-35.9-35.1-51.6-61.6c-17.3-29.2-31.3-49.8-62.6-49.8c-31.1,0-45.3,28.4-45.3,54.7c0,21.5,11.1,41.9,32,59.5l3-19.1
	c-11.8-12-18.9-25.7-18.9-40.3c0-14.3,5.9-38.6,29.2-38.6c36.1,0,48.7,47.4,53.9,57.2c4.9,9.4,14.6,25.6,28.8,38.6l11.2-7.1
	l-5.2,12.2c11.4,8.8,25.3,15.3,41.6,15.3V4.8l-62.7,22.7c0,0-33.3-27.5-79.2-27.5c-63.1,0-154.6,57.2-154.6,180.1
	c0,45.9,11.5,78.8,28.9,104.3C163.2,284.4,181,281.4,181,281.4z"/>
<path id="Small_Compass_Dark" class="st1" d="M219.8,198l33.9,75l-0.4,41.1l-33.5,73l68.6-42.7l24.2-1.6l71.4,44.4L353.2,319
	l-2.4-43.5l33-77.4l-62.1,39.5L289,240"/>
<path id="Small_Compass_Light" class="st2" d="M219.8,198l53.6,62.9l-20.2,53.2l-33.5,73l56.8-62.1l35.9,17.7l71.4,44.4l-64.5-76.6
	l31.5-35.1l33-77.4L325,264.1l-35.9-24.2"/>
<path id="Ball_Outline" class="st1" d="M380.2,292.7c0,43.2-35,78.2-78.2,78.2s-78.2-35-78.2-78.2s35-78.2,78.2-78.2
	S380.2,249.5,380.2,292.7L380.2,292.7z"/>
<path id="Ball_White" class="st0" d="M377.4,292.7c0,41.7-33.8,75.4-75.4,75.4s-75.4-33.8-75.4-75.4s33.8-75.4,75.4-75.4
	C343.7,217.3,377.4,251.1,377.4,292.7z"/>
<path id="Stitches" d="M252.9,241.4c0.6-0.2,2-5.2,2-5.2c-0.1-0.3-0.8-0.9-1.1-1.2c-0.4,0.3-0.7,0.6-1.1,0.9l-1,3.6l-0.9-0.7
	c-0.1,0-0.8,0.2-1.7,0.4c-1,0.9-1.9,1.9-2.8,2.9c1.3-0.3,4.9-1.4,5.6-1.6C252.3,240.9,252.9,241.4,252.9,241.4 M258.1,244.8
	c0.5-0.2,2-5.5,2-5.5c-0.2-0.4-1.6-1.3-1.6-1.3l-0.4-0.2l-0.1,0.4l-1.3,4.8l-1.3-0.8c-0.3,0-6.3,1.8-6.3,1.8
	c-0.1,0.7,1.5,1.6,1.5,1.6c0.3,0,5.6-1.6,6.2-1.8C257.3,244.3,258.1,244.8,258.1,244.8 M256.7,249.5c0.3,0,5.7-2,6.1-2.1
	c0.5,0.4,1.5,0.8,1.5,0.8c0.5-0.3,1.4-5.6,1.4-5.6c-0.2-0.4-1.9-1.2-1.9-1.2l-0.4-0.2l-0.1,0.5l-0.8,4.8l-1.4-0.7
	c-0.3,0-6.1,2.2-6.1,2.2C255,248.7,256.7,249.5,256.7,249.5 M262.1,251.9c0.4,0.6,1.7,1.1,1.7,1.1c0.3,0,5.5-2.2,5.9-2.4
	c0.6,0.4,1.6,0.8,1.6,0.8c0.5-0.3,1-5.6,1-5.6c-0.2-0.4-1.9-1.1-1.9-1.1l-0.5-0.2v0.5l-0.4,4.8l-1.5-0.6c-0.3,0-6,2.4-6,2.4
	C262,251.6,262,251.8,262.1,251.9 M269.2,254.8c0,0.1,0.1,0.2,0.2,0.3l0,0c0.5,0.5,2,0.9,2,0.9c0.3,0,5-2.8,5.4-3
	c0.7,0.3,1.8,0.6,1.8,0.6c0.5-0.4-0.1-5.7-0.1-5.7c-0.3-0.3-2.2-0.8-2.2-0.8l-0.5-0.2v0.5l0.5,4.8l-1.7-0.5
	C274.3,251.8,269.2,254.8,269.2,254.8 M325.7,254.5c0.1-0.4,0.1-0.7,0.1-0.9c0.7-0.1,1.9-0.4,1.9-0.4c0-0.1-0.1-0.2-0.1-0.3l0,0
	l-0.1-0.1c-0.5-0.6-1.6-1.7-2.6-2.6C325.2,251.7,325.4,253.1,325.7,254.5 M331.6,251c-0.3,0.3-1,4.8-1,4.8c0.5,0.4,2.4-0.3,2.4-0.3
	c0.2-0.3,0.8-4.1,0.9-4.7c0.6-0.2,1.5-0.5,1.5-0.5c0-0.1-0.1-0.2-0.2-0.4l0,0l-0.2-0.1c-1-1.1-4.9-3.6-4.9-3.6
	c-0.3,0-2.1,0.6-2.1,0.6l-0.7,0.3l5.3,3.4 M337.7,248.5c-0.2,0.3,0,4.8,0,4.8c0.5,0.3,2.2-0.6,2.2-0.6c0.2-0.3,0.1-3.9,0-4.6
	c0.6-0.2,1.4-0.6,1.4-0.6c0-0.1-0.1-0.2-0.2-0.3h0.1l-0.1-0.1c-1.1-1.1-5.1-3.4-5.1-3.4c-0.4,0-2,0.8-2,0.8l-0.6,0.3l5.5,3.1
	 M343.3,245.6c-0.2,0.4,0.3,4.8,0.3,4.8c0.6,0.3,2.1-0.6,2.1-0.6c0.2-0.3-0.2-3.9-0.3-4.6c0.6-0.3,1.3-0.7,1.3-0.7
	c0-0.1-0.1-0.2-0.2-0.3l0,0l-0.1-0.1c-1.1-1-5.3-3.1-5.3-3.1c-0.4,0-1.8,0.9-1.8,0.9l-0.6,0.4l5.6,2.8 M348.8,242.3
	c-0.1,0.4,1.5,4.6,1.5,4.6c0.6,0.1,1.9-1,1.9-1c0.1-0.3-1.1-3.6-1.4-4.4c0.5-0.3,1.1-0.9,1.1-0.9c-0.1-0.6-5.8-2.8-5.8-2.8
	c-0.4,0.1-1.5,1.1-1.5,1.1l-0.4,0.4l5.6,2.2L348.8,242.3z M354.9,243c0.6,0.2,1.9-0.9,1.9-0.9c0-0.2-0.1-0.7-0.4-1.5
	c-0.8-0.8-1.7-1.7-2.5-2.5l-0.4,0.4C353.4,238.8,354.9,243,354.9,243 M348.7,235.4l4,1.5c-0.9-0.8-1.9-1.7-2.8-2.5
	c-0.4,0.3-0.7,0.5-0.7,0.5 M351.8,344.2c-0.6,0.2-2,5.2-2,5.2c0.1,0.2,0.5,0.6,0.8,0.9c0.5-0.4,1-0.9,1.5-1.3l0.8-3l0.9,0.7
	c0.1,0,0.4,0,0.9-0.2c1-1,1.9-1.9,2.9-2.9c-1.6,0.4-4.3,1.2-4.9,1.4C352.3,344.7,351.8,344.2,351.8,344.2 M354,339.9
	c-0.3,0-5.6,1.6-6.2,1.8c-0.5-0.4-1.3-0.9-1.3-0.9c-0.5,0.2-2,5.5-2,5.5c0.2,0.4,1.7,1.2,1.7,1.2l0.4,0.2l1.4-5.2l1.3,0.7
	c0.3,0,6.3-1.8,6.3-1.8C355.6,340.9,354,339.9,354,339.9 M347.9,336.1c-0.3,0-5.8,2-6.1,2.1c-0.5-0.4-1.5-0.8-1.5-0.8
	c-0.5,0.2-1.4,5.5-1.4,5.5c0.2,0.4,1.8,1.2,1.8,1.2l0.5,0.2l0.9-5.3l1.4,0.7c0.3,0,6.1-2.1,6.1-2.1
	C349.6,337,347.9,336.1,347.9,336.1 M342.4,333.7L342.4,333.7L342.4,333.7c-0.4-0.5-1.7-1.1-1.7-1.1c-0.3,0-5.6,2.3-5.9,2.4
	c-0.6-0.4-1.6-0.8-1.6-0.8c-0.5,0.3-1,5.7-1,5.7c0.2,0.3,1.9,1.1,1.9,1.1l0.5,0.2l0.4-5.3l1.5,0.6c0.3,0,6-2.4,6-2.4
	C342.6,333.9,342.5,333.8,342.4,333.7 M335.4,330.8c0-0.1-0.1-0.2-0.2-0.4l0,0l0,0c-0.5-0.5-2-0.9-2-0.9c-0.3,0-5.2,2.9-5.4,3
	c-0.6-0.3-1.8-0.6-1.8-0.6c-0.5,0.4,0.2,5.7,0.2,5.7c0.3,0.4,2.2,0.8,2.2,0.8l0.5,0.2l-0.6-5.3l1.7,0.5
	C330.3,333.8,335.4,330.8,335.4,330.8 M326.5,328L326.5,328c-0.1,0-0.2-0.1-0.3-0.2c0,0.3-0.1,0.6-0.2,0.9c0.4-0.3,0.6-0.5,0.6-0.5
	C326.7,328.2,326.6,328.1,326.5,328 M273,334.6c0.2-0.3,0.9-4.9,0.9-4.9c-0.5-0.4-2.4,0.4-2.4,0.4c-0.2,0.2-0.8,4-0.9,4.7
	c-0.6,0.2-1.5,0.5-1.5,0.5c0,0.1,0.3,0.4,0.3,0.4c1.1,1.1,4.9,3.7,4.9,3.7c0.3,0,2.1-0.7,2.1-0.7l0.6-0.3l-5.2-3.4 M266.9,337.1
	c0.2-0.3,0-4.8,0-4.8c-0.6-0.3-2.2,0.6-2.2,0.6c-0.2,0.3-0.1,3.9-0.1,4.6c-0.6,0.2-1.4,0.6-1.4,0.6c0,0.1,0.3,0.4,0.3,0.4
	c1.1,1.1,5.1,3.4,5.1,3.4c0.4,0,2-0.8,2-0.8l0.6-0.3l-5.4-3.1 M261.3,339.9c0.2-0.3-0.3-4.8-0.3-4.8c-0.5-0.3-2.1,0.7-2.1,0.7
	c-0.2,0.3,0.2,3.9,0.3,4.6c-0.5,0.3-1.3,0.7-1.3,0.7s0.1,0.1,0.2,0.3l0,0h0.1c1.1,0.9,5.3,3.1,5.3,3.1c0.4,0,1.8-0.9,1.8-0.9
	l0.6-0.3l-5.6-2.8 M255.9,343.3c0.1-0.4-1.5-4.6-1.5-4.6c-0.6-0.1-1.8,1-1.8,1c-0.1,0.3,1.1,3.6,1.4,4.4c-0.5,0.3-1.1,0.9-1.1,0.9
	c0.1,0.6,5.8,2.8,5.8,2.8c0.4-0.1,1.5-1.1,1.5-1.1l0.4-0.4l-5.7-2.2 M249.7,342.6c-0.6-0.2-1.9,0.9-1.9,0.9c0,0.2,0.2,1.1,0.6,2
	c0.7,0.7,1.5,1.5,2.2,2.2l0.6-0.5C251.2,346.8,249.7,342.6,249.7,342.6 M255.9,350.2l-4.6-1.8c1.1,1,2.2,1.9,3.3,2.8
	c0.4-0.3,0.8-0.7,0.8-0.7 M278.7,332c-0.7,0.1-1.8,0.4-1.8,0.4c0,0.1,0,0.2,0.2,0.3l0,0h0.1c0.4,0.5,1.3,1.4,2.1,2.1
	C279,334,278.8,333,278.7,332"/>
<path id="Big_Compass_Dark" class="st1" d="M302.4,130.2l-22.2,139.5l-137.9,23l137.9,22.6L302,454.5l23-138.3l140.7-23.8l-140.7-23
	"/>
<path id="Big_Compass_Light" class="st2" d="M302.4,130.2L302,292.7l-21.8-23l-137.9,23H302l-21.8,22.6L302,454.5V292.7l23,23.4
	l140.7-23.8L302,292.7l23-23.4"/>
</svg>
