<?xml version="1.0" encoding="utf-8"?>
<!-- Generator: Adobe Illustrator 25.2.3, SVG Export Plug-In . SVG Version: 6.00 Build 0)  -->
<svg version="1.1" id="Layer_1" xmlns="http://www.w3.org/2000/svg" xmlns:xlink="http://www.w3.org/1999/xlink" x="0px" y="0px"
	 viewBox="0 0 600 600" style="enable-background:new 0 0 600 600;" xml:space="preserve">
<style type="text/css">
	.st0{fill:#FFFFFF;}
</style>
<path id="Outline" class="st0" d="M151.8,50.1c-15.5,16.5-30.5,49.2-32.6,71.4c-0.7,7.1-1,13.7-1,19.9c0,22.3,4.6,39.3,14.5,55.9
	c12.5,20.8,32.2,37.9,57,49.4c23.4,10.9,57.2,26,61.2,27.7c1.4,0.6,3.2,1.4,5.1,2.3c-7.7,5.6-12.3,8.9-16,11.6
	c-20.9-4.8-47.2-1.1-53.3,0.3c-24.8,5.9-47.6,17.1-64.1,31.5c-16.8,14.7-29.4,31.6-33.7,45.2c-4.8,15.1-3.2,25.9,4.6,31.9
	c11.5,8.9,26.3-0.2,31.1-3.2c10-6.3,28.4-17.9,51.6-21.3c20.2-3,47.2-0.3,59.6,7.9c0,7.3,0,16,0,22c-3,2.7-6.2,5.6-6.2,5.6
	c-3.1,3.1-4.8,7.4-4.8,11.8c0,2.1,0.4,4.2,1.1,6.2c2.1,5.6,6.8,8,6.8,8c40.1,24.4,40.1,24.4,67,40.9c-0.4,0.1-1.2,0.2-1.5,0.3
	c-3.6,1.6-11.8,6.7-11.8,21.1v58.7l34.9,33.3c7.7,7.7,15.2,9,20.1,8.7c6.1-0.4,11.6-3.3,15.6-8.4c0,0,23.2-29.8,37.6-48.2
	c10.7,16.5,27.5,42.5,27.5,42.5c-0.2-0.3,0.4,0.9,0.4,0.9c1.9,4.2,6,12.9,15.5,15.3c4.2,1.1,10.9,1.2,18.7-4.4
	c10.4-7.6,34.7-26.5,38.8-30.7l0.8-0.8c2.9-2.8,7.2-7.1,7.2-14.2v-56c0-6-3.2-13.6-10.6-16.6c-5.4-2.2-11.6-2.2-19,3.8
	c-3.3,2.7-8.9,6.8-17.1,13c-4.8-7.6-7.3-11.6-10.9-17.4c7-8.9,23.8-30,33.2-41.8c1.2,1,3.7,2.9,3.7,2.9l0.4,0.3
	c9.9,6.6,17.4,4.1,21,2.1c9.8-5.5,10-17.9,9.8-21.5v-47l-29.6-30.7c-4.3-4.8-10.3-7.3-16.4-6.8c-6.3,0.5-12.1,4.1-15.5,9.5
	c-1.6,2.3-15.7,20-30.3,38.2c0-13.6,0-53.7,0-61.5c1.8-1.8,3.7-3.7,3.7-3.7c2.6-2.3,8.7-9.7,8.7-18.4c0-2.1-0.4-4.2-1.2-6.4
	c-1.7-4.6-5.8-9.7-14.9-11.8c2.7-10.3,3.7-20.3,3.8-27.9c0-0.7,0-1.4,0-2.2c0-20.5-4.8-37.9-14.1-51.5
	c-11.1-16.2-19.7-21.7-31.6-29.2l-3.1-1.9c-13.9-8.8-86.6-47.1-89.7-48.7c-0.3-0.1-27.9-13.8-27.9-13.8
	C237.7,95,236.4,88.5,236.4,85c0-0.2,0-0.4,0-0.6c0.4-2.1,5.4-9.8,15.8-9.8c10.7,0,18.2,0.3,32.2,5.1c22.3,7.5,22.9,16.5,22.9,19.9
	c-0.1,0.8-0.7,10.2-0.7,10.2l46.3,31.6l69.4-89.1l-56.4-37.7l-7.5,7.5c-2.5,2.5-4.1,3.9-5,4.6c-1.1-0.2-4-0.7-4-0.7L337,21.3
	C317.3,13.2,284.6,0,254.8,0C202.7,0,175.3,24.8,151.8,50.1"/>
<path id="Black" d="M494.1,419.9V380l-24.9-22.4l-69,85.7l-9.7-15.5c8.4-6.3,19.3-14.3,20.5-14.9c2-1,7-4,9.5-4
	c2.3,0-3.5-10-19.9-10v-88.2l9.5-10.5c0,0-11.5,1.8-17,0.2c-1.1-0.4-3.1-1.3-5.4-2.5c3.1-4.9,5.9-10.5,8-17.1
	c11.3-35.7,3.9-68.7-22.9-89.1c-18.8-14.3-96.2-53.4-96.2-53.4s-46.8-22.9-51.8-28c-3.6-3.6-10.9-9.2-10.9-26.9
	c0-10.5,11.7-22.2,16.8-24.6c8.1-3.8,10.8-5.7,27.2-5.9c9.3-0.1,17.9,2.1,19.1,2.2c10.2,1.1,34.4,9,46.8,25.9
	c4.8,4.8,5.7,18.7,5.7,18.7l19.4,12.5l42.1-55l-23-15.5c-6.5,7-18.9,7.5-23.9,5s-47.8-18.1-53.8-20c-11.5-3.7-36.4-6.4-49.8-4.4
	c-13.5,2-35.5,6.1-52.8,24.4c-20.2,21.4-20.4,38.6-20.4,47.8c0,14.5,3.7,33.6,19.9,49.7c23.3,23.3,58.8,37.9,66.8,42.4
	c14.2,7.8,58.8,31.2,65.3,34.9c27.4,15.9,37.9,32.9,34.9,54.3c-0.2,1.1-0.5,2-0.7,3c-12-7.1-28.9-17.7-35.7-24.5c0,0-4.1,4.4-6.7,7
	l-19.9,14.9c2.3-9.7,2.6-26.2,2.2-27.8c-0.5-2-2-17.9-15.9-27.9c-9.5-6.8-30.6-19.4-48.8-28.4c-7.8-3.9-33.2-19.2-45.3-29.3
	c0,0-20.9-19.5-24.2-31.5c-6.2-13.7-6.5-46.1-3.2-49.3c0,0-8,9-13.4,26.9c-2.7,8.8-4.5,20.2-4.5,27.9c0,12.9,2.2,35.6,16.5,54.8
	c6.3,8.5,16.1,18.1,26.4,24.9c12.7,8.4,25.5,13.3,26.3,13.9c3.5,2.5,36.4,16.4,39.4,17.9s18.1,8.5,21.3,10.2
	c11.4,6.1,17.2,10,20.8,19.6l-34.1,25.5c0,0,1.5,2.7,1.5,7c0,0,0,1.2,0,3.2c-4.6-1.5-9.3-2.8-13.9-3.6c-22.4-3.8-36.1-3.6-53.8,0.8
	c-19.7,4.9-40.4,12.8-59.8,32.2c-21.9,21.9-21.7,36.6-21.7,36.6l21.9-12.9c18.3-10.3,42.5-16.5,59.6-16.5
	c40.7,0,61.9,11.8,67.7,18.3c0,20.4,0,38.6,0,39.5c0,7.8-2.4,8.8-4.1,10.3c-0.7,0.6-1.2,0.6-3.6,2.2c0,0,3,1.1,3.7,1.9
	c2,1.5,79.6,48.3,79.6,48.3l30-22l14.8,23.6L335.2,524l-28.4-25.9v48.3l32.4,29.9l57.2-71.8l46.9,74.8l37.9-30.4v-47.8L450.8,524
	L420,474.9l55.7-70 M300.5,312.3l17.7-13c4.8,4,10.5,7.6,16.1,10.9c-0.4,0.3-0.7,0.6-0.7,0.6s-20.4,17.5-33.1,19.2V312.3
	L300.5,312.3z M331.5,425.9l-31-18.9v-47c13-2.3,44.6-17.4,61-33.8c0.2,3.1,0.1,34.5,0.1,55.7l-19-30.3l-29,20.6v36.9l16-10.6
	l12,19.1L331.5,425.9z"/>
</svg>
